<svg width="48" height="48" viewBox="0 0 48 48" fill="none" xmlns="http://www.w3.org/2000/svg">
<mask id="mask0_49_764" style="mask-type:alpha" maskUnits="userSpaceOnUse" x="8" y="8" width="32" height="32">
<rect x="8" y="8" width="32" height="32" fill="white"/>
</mask>
<g mask="url(#mask0_49_764)">
<path d="M24.006 37.3334C22.1654 37.3334 20.4357 36.9834 18.817 36.2834C17.1984 35.5834 15.7852 34.6297 14.5777 33.4224C13.3704 32.2148 12.4167 30.8017 11.7167 29.183C11.0167 27.5644 10.6667 25.8347 10.6667 23.994C10.6667 22.1536 11.0175 20.4223 11.719 18.8C12.4204 17.1778 13.3724 15.7667 14.575 14.5667C15.7775 13.3667 17.1915 12.4167 18.817 11.7167C20.4428 11.0167 22.1705 10.6667 24 10.6667C24.8327 10.6667 25.6408 10.737 26.4244 10.8777C27.2081 11.0186 27.9741 11.2335 28.7224 11.5224C28.989 11.6186 29.1946 11.7825 29.339 12.014C29.4835 12.2454 29.5557 12.4999 29.5557 12.7777V14.9224C29.5557 15.5288 29.7689 16.0452 30.1954 16.4714C30.6216 16.8978 31.1379 17.111 31.7444 17.111H32.2224V17.811C32.2224 18.3519 32.4149 18.8149 32.8 19.2C33.1851 19.5852 33.6481 19.7777 34.189 19.7777H35.711C35.9852 19.7777 36.2366 19.8596 36.465 20.0234C36.6937 20.1869 36.8461 20.405 36.9224 20.6777C37.063 21.2186 37.1667 21.7617 37.2334 22.307C37.3 22.8524 37.3334 23.4167 37.3334 24C37.3334 25.8296 36.9834 27.5573 36.2834 29.183C35.5834 30.8086 34.6334 32.2226 33.4334 33.425C32.2334 34.6277 30.8222 35.5797 29.2 36.281C27.5778 36.9826 25.8465 37.3334 24.006 37.3334ZM23.989 31.311C25.2704 31.311 26.4518 31.0148 27.5334 30.4224C28.6149 29.8297 29.489 29.0119 30.1557 27.969C30.289 27.7082 30.2797 27.4518 30.1277 27.2C29.9759 26.9483 29.7481 26.8224 29.4444 26.8224H18.5537C18.2439 26.8224 18.0149 26.9483 17.8667 27.2C17.7185 27.4518 17.711 27.7082 17.8444 27.969C18.511 29.0119 19.387 29.8297 20.4724 30.4224C21.5575 31.0148 22.7297 31.311 23.989 31.311ZM19.2 22.3777C19.7185 22.3777 20.1592 22.1963 20.5224 21.8334C20.8852 21.4705 21.0667 21.0297 21.0667 20.511C21.0667 19.9926 20.8852 19.5519 20.5224 19.189C20.1592 18.8259 19.7185 18.6444 19.2 18.6444C18.6816 18.6444 18.2408 18.8259 17.8777 19.189C17.5148 19.5519 17.3334 19.9926 17.3334 20.511C17.3334 21.0297 17.5148 21.4705 17.8777 21.8334C18.2408 22.1963 18.6816 22.3777 19.2 22.3777ZM28.8 22.3777C29.3185 22.3777 29.7592 22.1963 30.1224 21.8334C30.4852 21.4705 30.6667 21.0297 30.6667 20.511C30.6667 19.9926 30.4852 19.5519 30.1224 19.189C29.7592 18.8259 29.3185 18.6444 28.8 18.6444C28.2816 18.6444 27.8408 18.8259 27.4777 19.189C27.1148 19.5519 26.9334 19.9926 26.9334 20.511C26.9334 21.0297 27.1148 21.4705 27.4777 21.8334C27.8408 22.1963 28.2816 22.3777 28.8 22.3777ZM34.889 14.4444H33.111C32.7964 14.4444 32.5325 14.3376 32.3194 14.124C32.1065 13.9103 32 13.6454 32 13.3294C32 13.0136 32.1065 12.7502 32.3194 12.539C32.5325 12.3279 32.7964 12.2224 33.111 12.2224H34.889V10.4444C34.889 10.1297 34.9958 9.86582 35.2094 9.65271C35.4231 9.43982 35.688 9.33337 36.004 9.33337C36.3198 9.33337 36.5832 9.43982 36.7944 9.65271C37.0055 9.86582 37.111 10.1297 37.111 10.4444V12.2224H38.889C39.2037 12.2224 39.4676 12.3292 39.6807 12.5427C39.8936 12.7565 40 13.0214 40 13.3374C40 13.6532 39.8936 13.9166 39.6807 14.1277C39.4676 14.3388 39.2037 14.4444 38.889 14.4444H37.111V16.2224C37.111 16.537 37.0042 16.8009 36.7907 17.014C36.5769 17.2269 36.312 17.3334 35.996 17.3334C35.6802 17.3334 35.4168 17.2269 35.2057 17.014C34.9946 16.8009 34.889 16.537 34.889 16.2224V14.4444Z" fill="white"/>
</g>
</svg>
