<svg width="32" height="32" viewBox="0 0 32 32" fill="none" xmlns="http://www.w3.org/2000/svg">
<mask id="mask0_400_4816" style="mask-type:alpha" maskUnits="userSpaceOnUse" x="0" y="0" width="32" height="32">
<rect width="32" height="32" fill="white"/>
</mask>
<g mask="url(#mask0_400_4816)">
<path d="M16.0058 29.3333C14.1652 29.3333 12.4355 28.9833 10.8168 28.2833C9.19817 27.5833 7.78506 26.6296 6.5775 25.4223C5.37017 24.2147 4.4165 22.8016 3.7165 21.1829C3.0165 19.5643 2.6665 17.8346 2.6665 15.9939C2.6665 14.1535 3.01728 12.4221 3.71884 10.7999C4.42017 9.1777 5.37217 7.76659 6.57484 6.56659C7.77728 5.36659 9.19128 4.41659 10.8168 3.71659C12.4426 3.01659 14.1703 2.66659 15.9998 2.66659C16.8325 2.66659 17.6406 2.73692 18.4242 2.87759C19.2079 3.01847 19.9739 3.23336 20.7222 3.52225C20.9888 3.61847 21.1944 3.78236 21.3388 4.01392C21.4833 4.24525 21.5555 4.49981 21.5555 4.77759V6.92225C21.5555 7.5287 21.7687 8.04503 22.1952 8.47125C22.6214 8.8977 23.1377 9.11092 23.7442 9.11092H24.2222V9.81092C24.2222 10.3518 24.4147 10.8148 24.7998 11.1999C25.1849 11.585 25.6479 11.7776 26.1888 11.7776H27.7108C27.9851 11.7776 28.2364 11.8595 28.4648 12.0233C28.6935 12.1868 28.8459 12.4049 28.9222 12.6776C29.0628 13.2185 29.1665 13.7616 29.2332 14.3069C29.2998 14.8523 29.3332 15.4166 29.3332 15.9999C29.3332 17.8295 28.9832 19.5571 28.2832 21.1829C27.5832 22.8085 26.6332 24.2225 25.4332 25.4249C24.2332 26.6276 22.8221 27.5796 21.1998 28.2809C19.5776 28.9825 17.8463 29.3333 16.0058 29.3333ZM15.9888 23.3109C17.2702 23.3109 18.4516 23.0147 19.5332 22.4223C20.6147 21.8296 21.4888 21.0118 22.1555 19.9689C22.2888 19.708 22.2795 19.4517 22.1275 19.1999C21.9757 18.9481 21.7479 18.8223 21.4442 18.8223H10.5535C10.2437 18.8223 10.0147 18.9481 9.8665 19.1999C9.71828 19.4517 9.71084 19.708 9.84417 19.9689C10.5108 21.0118 11.3868 21.8296 12.4722 22.4223C13.5573 23.0147 14.7295 23.3109 15.9888 23.3109ZM11.1998 14.3776C11.7183 14.3776 12.1591 14.1961 12.5222 13.8333C12.8851 13.4704 13.0665 13.0296 13.0665 12.5109C13.0665 11.9925 12.8851 11.5518 12.5222 11.1889C12.1591 10.8258 11.7183 10.6443 11.1998 10.6443C10.6814 10.6443 10.2406 10.8258 9.8775 11.1889C9.51462 11.5518 9.33317 11.9925 9.33317 12.5109C9.33317 13.0296 9.51462 13.4704 9.8775 13.8333C10.2406 14.1961 10.6814 14.3776 11.1998 14.3776ZM20.7998 14.3776C21.3183 14.3776 21.7591 14.1961 22.1222 13.8333C22.4851 13.4704 22.6665 13.0296 22.6665 12.5109C22.6665 11.9925 22.4851 11.5518 22.1222 11.1889C21.7591 10.8258 21.3183 10.6443 20.7998 10.6443C20.2814 10.6443 19.8406 10.8258 19.4775 11.1889C19.1146 11.5518 18.9332 11.9925 18.9332 12.5109C18.9332 13.0296 19.1146 13.4704 19.4775 13.8333C19.8406 14.1961 20.2814 14.3776 20.7998 14.3776ZM26.8888 6.44425H25.1108C24.7962 6.44425 24.5323 6.33747 24.3192 6.12392C24.1063 5.91014 23.9998 5.64525 23.9998 5.32925C23.9998 5.01347 24.1063 4.75003 24.3192 4.53892C24.5323 4.32781 24.7962 4.22225 25.1108 4.22225H26.8888V2.44425C26.8888 2.12959 26.9956 1.8657 27.2092 1.65259C27.423 1.4397 27.6878 1.33325 28.0038 1.33325C28.3196 1.33325 28.5831 1.4397 28.7942 1.65259C29.0053 1.8657 29.1108 2.12959 29.1108 2.44425V4.22225H30.8888C31.2035 4.22225 31.4674 4.32903 31.6805 4.54259C31.8934 4.75636 31.9998 5.02125 31.9998 5.33725C31.9998 5.65303 31.8934 5.91647 31.6805 6.12759C31.4674 6.3387 31.2035 6.44425 30.8888 6.44425H29.1108V8.22225C29.1108 8.53692 29.0041 8.80081 28.7905 9.01392C28.5767 9.22681 28.3118 9.33325 27.9958 9.33325C27.6801 9.33325 27.4166 9.22681 27.2055 9.01392C26.9944 8.80081 26.8888 8.53692 26.8888 8.22225V6.44425Z" fill="white"/>
</g>
</svg>
