<svg
        width='24'
        height='24'
        viewBox='0 0 24 24'
        fill='none'
        xmlns="http://www.w3.org/2000/svg"
>
    <g clip-path="url(#clip0)">
        <path
                d="M18.2566 18.1856C18.2566 18.1856 17.2263 18.3531 16.7756 18.9183C14.801 21.2627 12.0966 22.2256 9.22047 22.2256C3.23218 22.2256 0.248767 17.2646 1.15023 11.7803C2.07316 6.10761 6.58047 1.23035 12.6975 1.23035C15.4663 1.23035 17.7629 2.50723 19.1151 4.6214C19.5229 5.27031 20.0595 5.98201 20.2956 6.71465L18.2566 18.1856ZM4.75608 11.5291C4.11218 15.4225 5.89364 19.1067 10.2293 19.1067C14.6936 19.1067 17.6127 15.59 18.2566 11.571C18.9005 7.59381 16.8614 4.37021 12.5688 4.37021C8.53364 4.37021 5.37852 7.80314 4.75608 11.5291Z"
                fill="#525E67"
        />
        <path
                d="M21.7551 1.02097C20.961 0.895377 20.2098 1.43962 20.081 2.21412C19.9951 2.7165 20.1883 3.19795 20.5961 3.53287L18.278 17.9763L16.2819 9.91726C16.8615 9.37302 16.8615 8.45199 16.3034 7.88681C15.7454 7.32164 14.801 7.32164 14.2215 7.86588C13.8566 8.22173 13.7063 8.74504 13.8137 9.22649C13.8566 9.37302 13.921 9.51955 14.0068 9.66607L11.7532 14.6899H11.6888L10.0146 12.785C10.2722 12.0314 9.86439 11.2151 9.0917 10.9639C8.31902 10.7127 7.48195 11.1104 7.22439 11.864C7.16 12.0314 7.13853 12.2198 7.13853 12.4082L5.93658 13.2037C5.20682 12.8687 4.32682 13.1618 3.98341 13.8735C3.63999 14.5852 3.94048 15.4434 4.67024 15.7783C5.39999 16.1133 6.28 15.8202 6.62341 15.1085C6.73073 14.8992 6.77365 14.648 6.77365 14.4177L7.97561 13.6432C8.25463 13.7688 8.55512 13.8107 8.85561 13.7688L10.5298 15.6737C10.2722 16.4273 10.6585 17.2436 11.4312 17.4948C12.2039 17.746 13.041 17.3692 13.2985 16.6156C13.4488 16.1761 13.3844 15.6946 13.1054 15.2969L14.9727 11.1104L17.3337 20.6347C16.7756 21.2208 16.8185 22.1209 17.4195 22.6651C18.0205 23.2094 18.9434 23.1675 19.5015 22.5814C20.0595 21.9953 20.0166 21.0952 19.4156 20.5509C19.3941 20.53 19.3727 20.5091 19.3512 20.5091L22.0341 3.80499C22.7854 3.51193 23.1502 2.67463 22.8498 1.942C22.6995 1.43962 22.2702 1.1047 21.7551 1.02097Z"
                fill="#525E67"
        />
    </g>
    <defs>
        <clipPath id="clip0">
            <rect width="22" height="22" fill="white" transform="translate(1 1)" />
        </clipPath>
    </defs>
</svg>