<svg
        width='24'
        height='24'
        viewBox='0 0 24 24'
        fill='none'
        xmlns="http://www.w3.org/2000/svg"
>
    <path
            d="M11.9563 13.0083C13.1152 13.0083 14.0546 12.0233 14.0546 10.8083C14.0546 9.59325 13.1152 8.60828 11.9563 8.60828C10.7974 8.60828 9.85791 9.59325 9.85791 10.8083C9.85791 12.0233 10.7974 13.0083 11.9563 13.0083Z"
            fill="#525E67"
    />
    <path
            d="M11.9563 15.4833C12.5683 15.4833 13.0929 15.3917 13.6175 15.1167V19.3333L12.8306 18.6917C12.3934 18.325 11.6066 18.325 11.1694 18.6917L6.01093 22.725C5.22404 23.275 4 22.9083 4 22.0833V1.91667C4 1.45833 4.52459 1 5.13661 1H7.49727V10.8083C7.49727 13.375 9.5082 15.4833 11.9563 15.4833Z"
            fill="#525E67"
    />
    <path
            d="M20 1.91667V22.0833C20 22.9083 18.776 23.275 17.9891 22.725L16.4153 21.5333V10.8083C16.4153 8.24167 14.4044 6.13333 11.9563 6.13333C11.3443 6.13333 10.8197 6.225 10.2951 6.5V1H18.8634C19.4754 1 20 1.36667 20 1.91667Z"
            fill="#525E67"
    />
</svg>