<svg
        viewBox='0 0 24 24'
        fill='none'
        xmlns="http://www.w3.org/2000/svg"
>
    <path
            d="M15.277 20.0195C14.3959 20.5088 13.4408 20.8621 12.4487 21.0521C10.0276 21.5159 7.4325 21.011 5.36679 19.6617C3.07526 18.1675 1.4723 15.671 1.091 12.9557C0.743013 10.477 1.40197 7.87628 2.91238 5.86245C4.64861 3.54668 7.4325 2.06837 10.4089 2.00259C10.4903 2.00074 10.5755 2 10.6569 2C13.0891 2.01146 15.488 2.9731 17.2465 4.63582C18.7013 6.01139 19.7157 7.85004 20.0859 9.82284C20.4043 11.5022 20.2525 13.2643 19.675 14.8764L18.4533 14.0456H17.0169C17.5574 12.6157 17.6315 11.004 17.1502 9.51978C16.3247 6.9527 13.8999 4.97436 11.0901 4.78735C10.9272 4.77664 10.768 4.77146 10.6051 4.77183C7.98409 4.78439 5.44455 6.36286 4.34506 8.87524C3.38254 11.0724 3.64168 13.733 5.15949 15.7335C6.16273 17.0555 7.65463 17.999 9.2872 18.3216C11.4047 18.7411 13.6926 18.0722 15.277 16.6267V20.0195Z"
            fill="#525E67"
    />
    <path
            fill-rule="evenodd"
            clip-rule="evenodd"
            d="M23 18.1548L18.4334 15.052L10.2257 15.052L12.7663 18.2772L10.257 21.2205H18.4427L23 18.1548Z"
            fill="#525E67"
    />
    <rect x="7" y="8" width="2" height="4" rx="1" fill="#525E67" />
    <rect x="11" y="8" width="2" height="4" rx="1" fill="#525E67" />
</svg>