<svg width="64" height="64" viewBox="0 0 64 64" fill="none" xmlns="http://www.w3.org/2000/svg">
<rect width="64" height="64" rx="32" fill="#F26451"/>
<mask id="mask0_12_1284" style="mask-type:alpha" maskUnits="userSpaceOnUse" x="16" y="16" width="32" height="32">
<rect x="16" y="16" width="32" height="32" fill="white"/>
</mask>
<g mask="url(#mask0_12_1284)">
<path d="M32 26.6667C34.6222 26.6667 37.2055 27.1945 39.75 28.2501C42.2944 29.3056 44.5555 30.889 46.5333 33.0001C46.8 33.2667 46.9333 33.5779 46.9333 33.9334C46.9333 34.289 46.8 34.6001 46.5333 34.8667L43.4667 37.8667C43.2222 38.1112 42.9389 38.2445 42.6167 38.2667C42.2944 38.289 42 38.2001 41.7333 38.0001L37.8667 35.0667C37.6889 34.9334 37.5555 34.7779 37.4667 34.6001C37.3778 34.4223 37.3333 34.2223 37.3333 34.0001V30.2001C36.4889 29.9334 35.6222 29.7223 34.7333 29.5667C33.8444 29.4112 32.9333 29.3334 32 29.3334C31.0667 29.3334 30.1555 29.4112 29.2667 29.5667C28.3778 29.7223 27.5111 29.9334 26.6667 30.2001V34.0001C26.6667 34.2223 26.6222 34.4223 26.5333 34.6001C26.4444 34.7779 26.3111 34.9334 26.1333 35.0667L22.2667 38.0001C22 38.2001 21.7055 38.289 21.3833 38.2667C21.0611 38.2445 20.7778 38.1112 20.5333 37.8667L17.4667 34.8667C17.2 34.6001 17.0667 34.289 17.0667 33.9334C17.0667 33.5779 17.2 33.2667 17.4667 33.0001C19.4222 30.889 21.6778 29.3056 24.2333 28.2501C26.7889 27.1945 29.3778 26.6667 32 26.6667Z" fill="white"/>
</g>
</svg>
