<svg width="24" height="24" viewBox="0 0 24 24" fill="none" xmlns="http://www.w3.org/2000/svg">
<path d="M15 8.00005V15.6667C15 17.1401 13.8067 18.3334 12.3333 18.3334C10.86 18.3334 9.66666 17.1401 9.66666 15.6667V7.33338C9.66666 6.41338 10.4133 5.66672 11.3333 5.66672C12.2533 5.66672 13 6.41338 13 7.33338V14.3334C13 14.7001 12.7 15.0001 12.3333 15.0001C11.9667 15.0001 11.6667 14.7001 11.6667 14.3334V8.00005H10.6667V14.3334C10.6667 15.2534 11.4133 16.0001 12.3333 16.0001C13.2533 16.0001 14 15.2534 14 14.3334V7.33338C14 5.86005 12.8067 4.66672 11.3333 4.66672C9.85999 4.66672 8.66666 5.86005 8.66666 7.33338V15.6667C8.66666 17.6934 10.3067 19.3334 12.3333 19.3334C14.36 19.3334 16 17.6934 16 15.6667V8.00005H15Z" fill="#525E67"/>
</svg>
