<svg width="24" height="24" viewBox="0 0 24 24" fill="none" xmlns="http://www.w3.org/2000/svg">
    <g opacity="0.6">
        <path d="M10.3333 4.73333C14.1553 4.73333 17.2667 7.84467 17.2667 11.6667C17.2667 15.4887 14.1553 18.6 10.3333 18.6C10.0387 18.6 9.744 18.5827 9.458 18.5393C11.1133 16.6673 12.0667 14.2233 12.0667 11.6667C12.0667 9.11 11.1133 6.666 9.458 4.794C9.744 4.75067 10.0387 4.73333 10.3333 4.73333ZM10.3333 3C8.756 3 7.274 3.43333 6 4.17C8.59133 5.66933 10.3333 8.46 10.3333 11.6667C10.3333 14.8733 8.59133 17.664 6 19.1633C7.274 19.9 8.756 20.3333 10.3333 20.3333C15.1173 20.3333 19 16.4507 19 11.6667C19 6.88267 15.1173 3 10.3333 3Z" fill="#828E96"/>
    </g>
</svg>
