<svg xmlns="http://www.w3.org/2000/svg" viewBox="0 0 24 24" fill="none">
<path d="M 7.265625 3.988281 C 6.660156 4.339844 6.097656 4.761719 5.589844 5.246094 C 4.136719 6.636719 3.179688 8.3125 2.820312 10.292969 C 2.292969 13.222656 2.996094 15.84375 4.925781 18.109375 C 6.324219 19.75 8.109375 20.761719 10.226562 21.183594 C 10.378906 21.214844 10.535156 21.234375 10.691406 21.269531 C 10.738281 21.28125 10.777344 21.3125 10.800781 21.359375 C 11.085938 22.214844 11.371094 23.070312 11.652344 23.925781 C 11.660156 23.945312 11.660156 23.964844 11.664062 23.984375 C 6.421875 23.914062 1.1875 20.039062 0.164062 13.984375 C -0.84375 8.019531 2.855469 2.066406 8.890625 0.464844 C 9.699219 2.898438 10.511719 5.332031 11.320312 7.765625 C 12.128906 10.195312 12.9375 12.625 13.777344 15.050781 L 13.84375 13.621094 C 13.917969 12.023438 13.992188 10.429688 14.0625 8.832031 C 14.089844 8.304688 14.109375 7.777344 14.132812 7.25 C 14.167969 6.503906 14.886719 6.046875 15.546875 6.359375 C 15.683594 6.425781 15.800781 6.527344 15.894531 6.644531 C 17.648438 8.890625 19.402344 11.140625 21.148438 13.390625 C 21.171875 13.421875 21.199219 13.449219 21.246094 13.511719 C 21.273438 13.320312 21.300781 13.167969 21.3125 13.007812 C 21.53125 10.175781 20.730469 7.6875 18.777344 5.605469 C 17.277344 4.007812 15.417969 3.066406 13.25 2.757812 C 12.8125 2.699219 12.371094 2.699219 11.929688 2.679688 C 11.847656 2.679688 11.789062 2.667969 11.761719 2.574219 C 11.492188 1.753906 11.21875 0.929688 10.949219 0.113281 C 10.941406 0.09375 10.9375 0.0742188 10.9375 0.0507812 C 14.382812 -0.21875 19.019531 0.929688 22.027344 5.457031 C 24.789062 9.621094 24.546875 14.96875 21.949219 18.738281 C 21.914062 18.699219 21.882812 18.667969 21.851562 18.632812 C 20.660156 17.101562 19.464844 15.570312 18.273438 14.039062 C 17.96875 13.644531 17.550781 13.496094 17.144531 13.632812 C 16.714844 13.777344 16.46875 14.136719 16.453125 14.632812 C 16.445312 14.816406 16.433594 15 16.421875 15.1875 C 16.359375 16.632812 16.292969 18.074219 16.226562 19.519531 C 16.171875 20.742188 16.113281 21.964844 16.0625 23.1875 C 16.074219 23.273438 16.015625 23.347656 15.933594 23.355469 C 15.308594 23.515625 14.683594 23.675781 14.058594 23.839844 C 13.917969 23.875 13.859375 23.828125 13.816406 23.691406 C 12.046875 18.351562 10.273438 13.011719 8.496094 7.675781 C 8.109375 6.507812 7.722656 5.339844 7.335938 4.175781 C 7.316406 4.117188 7.292969 4.0625 7.265625 3.988281 Z M 7.265625 3.988281" fill="currentColor"/>
</svg>
