<svg width="24" height="24" viewBox="0 0 24 24" fill="none" xmlns="http://www.w3.org/2000/svg">
<path d="M9.71365 12.1674L12.3989 9.51574L20.4545 17.4707L17.7693 20.1223L9.71365 12.1674Z" fill="#525E67"/>
<rect width="3.77381" height="3.77381" transform="matrix(0.71154 -0.702646 0.71154 0.702646 5.23877 7.74799)" fill="#525E67"/>
<path fill-rule="evenodd" clip-rule="evenodd" d="M3.28617 12.9375H1.93762V11.6875H3.28617V10.339H4.53617V11.6875H5.88472V12.9375H4.53617V14.286H3.28617V12.9375ZM9.16683 19.0777L8.11722 19.0777L8.11722 17.8277L9.16683 17.8277L9.16683 16.7781H10.4168L10.4168 17.8277L11.4664 17.8277L11.4664 19.0777L10.4168 19.0777L10.4168 20.1273L9.16683 20.1273L9.16683 19.0777Z" fill="#525E67"/>
<path fill-rule="evenodd" clip-rule="evenodd" d="M13.6027 5.80814H12.2946V4.55814H13.6027L13.6027 3.25L14.8527 3.25L14.8527 4.55814L16.1608 4.55814V5.80814L14.8527 5.80814L14.8527 7.11627L13.6027 7.11627L13.6027 5.80814Z" fill="#525E67"/>
</svg>
