<svg width="24" height="24" viewBox="0 0 24 24" fill="none" xmlns="http://www.w3.org/2000/svg">
<path d="M7.99686 13.3831H6.99701V12.3987H7.99686V13.3831Z" fill="black"/>
<path d="M12.9961 12.3987H11.9962V15.3518H12.9961V12.3987Z" fill="black"/>
<path fill-rule="evenodd" clip-rule="evenodd" d="M14 2H6C5.46957 2 4.96086 2.21071 4.58579 2.58579C4.21071 2.96086 4 3.46957 4 4V20C4 20.5304 4.21071 21.0391 4.58579 21.4142C4.96086 21.7893 5.46957 22 6 22H18C18.5304 22 19.0391 21.7893 19.4142 21.4142C19.7893 21.0391 20 20.5304 20 20V8L14 2ZM18.5 9H13V3.5L18.5 9ZM9.49662 12.3987C9.49662 12.0071 9.33861 11.6315 9.05735 11.3546C8.77609 11.0777 8.39462 10.9221 7.99686 10.9221H5.49725V16.8284H6.99701V14.8596H7.99686C8.39462 14.8596 8.77609 14.7041 9.05735 14.4272C9.33861 14.1503 9.49662 13.7747 9.49662 13.3831V12.3987ZM14.4958 12.3987C14.4958 12.0071 14.3378 11.6315 14.0566 11.3546C13.7753 11.0777 13.3938 10.9221 12.9961 10.9221H10.4965V16.8284H12.9961C13.3938 16.8284 13.7753 16.6728 14.0566 16.3959C14.3378 16.119 14.4958 15.7434 14.4958 15.3518V12.3987ZM15.4957 10.9221H18.4952V12.3987H16.9955V13.3831H18.4952V14.8596H16.9955V16.8284H15.4957V10.9221Z" fill="black"/>
</svg>
