<svg width="24" height="24" viewBox="0 0 24 24" fill="none" xmlns="http://www.w3.org/2000/svg">
<path d="M18.54 16V10.5C18.54 7.43 16.4 4.86 13.54 4.18V3.5C13.54 3.10218 13.382 2.72064 13.1007 2.43934C12.8194 2.15804 12.4378 2 12.04 2C11.6422 2 11.2606 2.15804 10.9793 2.43934C10.698 2.72064 10.54 3.10218 10.54 3.5V4.18C7.67 4.86 5.54 7.43 5.54 10.5V16L3.54 18V19H20.54V18L18.54 16Z" fill="#49535B"/>
<path d="M12.04 22C12.5704 22 13.0791 21.7893 13.4542 21.4142C13.8293 21.0391 14.04 20.5304 14.04 20H10.04C10.04 20.5304 10.2507 21.0391 10.6258 21.4142C11.0009 21.7893 11.5096 22 12.04 22Z" fill="#49535B"/>
<path d="M2 10.5417H3.81818C3.81818 8.24167 4.69091 6.0375 6.24545 4.41792L4.95455 3.05708C3.05455 5.03125 2 7.73375 2 10.5417Z" fill="#49535B"/>
<path d="M19.0455 3.05708L17.7545 4.41792C19.3091 6.0375 20.1818 8.24167 20.1818 10.5417H22C22 7.73375 20.9455 5.03125 19.0455 3.05708Z" fill="#49535B"/>
</svg>
