<svg width="24" height="24" viewBox="0 0 24 24" fill="none" xmlns="http://www.w3.org/2000/svg">
<path fill-rule="evenodd" clip-rule="evenodd" d="M11.0576 2.37846C13.5734 2.88 15.4745 5.18423 15.4745 7.951C15.4745 8.84276 15.277 9.68646 14.9251 10.4372C16.9307 9.98242 18.4327 8.12232 18.4327 5.8968C18.4327 3.33044 16.4355 1.25 13.9718 1.25C12.8579 1.25 11.8393 1.67528 11.0576 2.37846Z" fill="#828E96"/>
<path fill-rule="evenodd" clip-rule="evenodd" d="M14.2991 11.4729C13.9941 11.8736 13.6383 12.2304 13.2417 12.5327C15.5041 12.8095 17.2593 14.8135 17.2593 17.2445V21.6959H20.2172V15.1903C20.2172 13.1373 18.6194 11.4729 16.6485 11.4729H14.2991Z" fill="#828E96"/>
<path fill-rule="evenodd" clip-rule="evenodd" d="M10.0273 12.5978C12.491 12.5978 14.4883 10.5174 14.4883 7.951C14.4883 5.38464 12.491 3.3042 10.0273 3.3042C7.56363 3.3042 5.56641 5.38464 5.56641 7.951C5.56641 10.5174 7.56363 12.5978 10.0273 12.5978Z" fill="#828E96"/>
<path fill-rule="evenodd" clip-rule="evenodd" d="M7.35097 13.5271C5.38001 13.5271 3.78223 15.1915 3.78223 17.2445V23.7501H16.2728V17.2445C16.2728 15.1915 14.675 13.5271 12.7041 13.5271H7.35097Z" fill="#828E96"/>
</svg>
