<svg width="32" height="32" viewBox="0 0 32 32" fill="none" xmlns="http://www.w3.org/2000/svg">
<mask id="mask0_164_694" style="mask-type:alpha" maskUnits="userSpaceOnUse" x="0" y="0" width="32" height="32">
<rect width="32" height="32" fill="white"/>
</mask>
<g mask="url(#mask0_164_694)">
<path d="M1.28894 23.3333C1.28894 22.5628 1.48705 21.8609 1.88327 21.2276C2.2795 20.5943 2.82205 20.1184 3.51094 19.7999C5.05183 19.0962 6.49261 18.5832 7.83327 18.2609C9.17394 17.9387 10.5481 17.7776 11.9556 17.7776C13.3629 17.7776 14.7333 17.9387 16.0666 18.2609C17.3999 18.5832 18.8369 19.0962 20.3776 19.7999C21.0665 20.1184 21.6128 20.5943 22.0166 21.2276C22.4204 21.8609 22.6223 22.5628 22.6223 23.3333V24.4443C22.6223 25.0592 22.4056 25.5833 21.9723 26.0166C21.5389 26.45 21.0148 26.6666 20.3999 26.6666H3.51094C2.89627 26.6666 2.37227 26.45 1.93894 26.0166C1.50561 25.5833 1.28894 25.0592 1.28894 24.4443V23.3333ZM24.2889 26.6666C24.4445 26.3111 24.5759 25.9499 24.6833 25.5833C24.7906 25.2166 24.8443 24.837 24.8443 24.4443V23.2443C24.8443 21.9852 24.5387 20.9204 23.9276 20.0499C23.3165 19.1795 22.4147 18.4443 21.2223 17.8443C22.6223 18.0074 23.9407 18.2463 25.1776 18.561C26.4147 18.8758 27.4592 19.2592 28.3109 19.7109C29.0665 20.1407 29.6554 20.6537 30.0776 21.2499C30.4998 21.8462 30.7109 22.511 30.7109 23.2443V24.4443C30.7109 25.0592 30.4943 25.5833 30.0609 26.0166C29.6276 26.45 29.1036 26.6666 28.4889 26.6666H24.2889ZM11.9556 15.9776C10.4889 15.9776 9.27039 15.4925 8.29994 14.5223C7.3295 13.5518 6.84427 12.3333 6.84427 10.8666C6.84427 9.39995 7.3295 8.18139 8.29994 7.21095C9.27039 6.24073 10.4889 5.75562 11.9556 5.75562C13.4223 5.75562 14.6407 6.24073 15.6109 7.21095C16.5814 8.18139 17.0666 9.39995 17.0666 10.8666C17.0666 12.3333 16.5814 13.5518 15.6109 14.5223C14.6407 15.4925 13.4223 15.9776 11.9556 15.9776ZM24.3999 10.8666C24.3999 12.3333 23.9147 13.5518 22.9443 14.5223C21.9741 15.4925 20.7556 15.9776 19.2889 15.9776C19.0445 15.9776 18.7593 15.9573 18.4333 15.9166C18.1073 15.8759 17.8221 15.8148 17.5776 15.7333C18.1332 15.1259 18.5573 14.4074 18.8499 13.5776C19.1426 12.7481 19.2889 11.8444 19.2889 10.8666C19.2889 9.88884 19.1426 8.99995 18.8499 8.19995C18.5573 7.39995 18.1332 6.66662 17.5776 5.99995C17.8443 5.91839 18.1295 5.85728 18.4333 5.81662C18.7371 5.77595 19.0223 5.75562 19.2889 5.75562C20.7556 5.75562 21.9741 6.24073 22.9443 7.21095C23.9147 8.18139 24.3999 9.39995 24.3999 10.8666Z" fill="white"/>
</g>
</svg>
