<svg width="24" height="24" viewBox="0 0 24 24" fill="none" xmlns="http://www.w3.org/2000/svg">
<path d="M10.359 11.477H10.341L9.189 13.997H7.803L6.651 11.477H6.633V15.5H5.184V8.93H6.75L8.487 12.8H8.505L10.242 8.93H11.844V15.5H10.359V11.477ZM18.5814 12.125C18.5814 13.229 18.2754 14.084 17.6634 14.69C17.0574 15.29 16.2024 15.59 15.0984 15.59C14.4324 15.59 13.8024 15.545 13.2084 15.455V8.975C13.8024 8.885 14.4324 8.84 15.0984 8.84C16.2024 8.84 17.0574 9.131 17.6634 9.713C18.2754 10.289 18.5814 11.093 18.5814 12.125ZM17.1234 12.125C17.1234 10.733 16.4874 10.037 15.2154 10.037C15.0414 10.037 14.8734 10.055 14.7114 10.091V14.339C14.8734 14.375 15.0414 14.393 15.2154 14.393C16.4874 14.393 17.1234 13.637 17.1234 12.125Z" fill="#6B7D8A"/>
<path d="M6 5.5H18V3.5H6V5.5ZM21 8.5V15.5H23V8.5H21ZM18 18.5H6V20.5H18V18.5ZM3 15.5V8.5H1V15.5H3ZM6 18.5C4.34315 18.5 3 17.1569 3 15.5H1C1 18.2614 3.23858 20.5 6 20.5V18.5ZM21 15.5C21 17.1569 19.6569 18.5 18 18.5V20.5C20.7614 20.5 23 18.2614 23 15.5H21ZM18 5.5C19.6569 5.5 21 6.84315 21 8.5H23C23 5.73858 20.7614 3.5 18 3.5V5.5ZM6 3.5C3.23858 3.5 1 5.73858 1 8.5H3C3 6.84315 4.34315 5.5 6 5.5V3.5Z" fill="#6B7D8A"/>
</svg>
