<svg width="32" height="32" viewBox="0 0 32 32" fill="none" xmlns="http://www.w3.org/2000/svg">
<mask id="mask0_32_698" style="mask-type:alpha" maskUnits="userSpaceOnUse" x="0" y="0" width="32" height="32">
<rect width="32" height="32" fill="#333333"/>
<rect width="32" height="32" fill="black" fill-opacity="0.2"/>
</mask>
<g mask="url(#mask0_32_698)">
<path d="M16.0001 18.6667C14.8889 18.6667 13.9445 18.2779 13.1667 17.5001C12.3889 16.7223 12.0001 15.7779 12.0001 14.6667V6.66675C12.0001 5.55564 12.3889 4.61119 13.1667 3.83341C13.9445 3.05564 14.8889 2.66675 16.0001 2.66675C17.1112 2.66675 18.0556 3.05564 18.8334 3.83341C19.6112 4.61119 20.0001 5.55564 20.0001 6.66675V14.6667C20.0001 15.7779 19.6112 16.7223 18.8334 17.5001C18.0556 18.2779 17.1112 18.6667 16.0001 18.6667ZM14.6667 26.6667V23.9001C12.6223 23.6112 10.8723 22.7445 9.41673 21.3001C7.96117 19.8556 7.07784 18.1001 6.76673 16.0334C6.72228 15.6556 6.82228 15.3334 7.06673 15.0667C7.31117 14.8001 7.62228 14.6667 8.00006 14.6667C8.37784 14.6667 8.6945 14.7945 8.95006 15.0501C9.20562 15.3056 9.37784 15.6223 9.46673 16.0001C9.77784 17.5556 10.5501 18.8334 11.7834 19.8334C13.0167 20.8334 14.4223 21.3334 16.0001 21.3334C17.6001 21.3334 19.0112 20.8279 20.2334 19.8167C21.4556 18.8056 22.2223 17.5334 22.5334 16.0001C22.6223 15.6223 22.7945 15.3056 23.0501 15.0501C23.3056 14.7945 23.6223 14.6667 24.0001 14.6667C24.3778 14.6667 24.6889 14.8001 24.9334 15.0667C25.1778 15.3334 25.2778 15.6556 25.2334 16.0334C24.9223 18.0556 24.0445 19.8001 22.6001 21.2667C21.1556 22.7334 19.4001 23.6112 17.3334 23.9001V26.6667C17.3334 27.0445 17.2056 27.3612 16.9501 27.6167C16.6945 27.8723 16.3778 28.0001 16.0001 28.0001C15.6223 28.0001 15.3056 27.8723 15.0501 27.6167C14.7945 27.3612 14.6667 27.0445 14.6667 26.6667Z" fill="#333333"/>
<path d="M16.0001 18.6667C14.8889 18.6667 13.9445 18.2779 13.1667 17.5001C12.3889 16.7223 12.0001 15.7779 12.0001 14.6667V6.66675C12.0001 5.55564 12.3889 4.61119 13.1667 3.83341C13.9445 3.05564 14.8889 2.66675 16.0001 2.66675C17.1112 2.66675 18.0556 3.05564 18.8334 3.83341C19.6112 4.61119 20.0001 5.55564 20.0001 6.66675V14.6667C20.0001 15.7779 19.6112 16.7223 18.8334 17.5001C18.0556 18.2779 17.1112 18.6667 16.0001 18.6667ZM14.6667 26.6667V23.9001C12.6223 23.6112 10.8723 22.7445 9.41673 21.3001C7.96117 19.8556 7.07784 18.1001 6.76673 16.0334C6.72228 15.6556 6.82228 15.3334 7.06673 15.0667C7.31117 14.8001 7.62228 14.6667 8.00006 14.6667C8.37784 14.6667 8.6945 14.7945 8.95006 15.0501C9.20562 15.3056 9.37784 15.6223 9.46673 16.0001C9.77784 17.5556 10.5501 18.8334 11.7834 19.8334C13.0167 20.8334 14.4223 21.3334 16.0001 21.3334C17.6001 21.3334 19.0112 20.8279 20.2334 19.8167C21.4556 18.8056 22.2223 17.5334 22.5334 16.0001C22.6223 15.6223 22.7945 15.3056 23.0501 15.0501C23.3056 14.7945 23.6223 14.6667 24.0001 14.6667C24.3778 14.6667 24.6889 14.8001 24.9334 15.0667C25.1778 15.3334 25.2778 15.6556 25.2334 16.0334C24.9223 18.0556 24.0445 19.8001 22.6001 21.2667C21.1556 22.7334 19.4001 23.6112 17.3334 23.9001V26.6667C17.3334 27.0445 17.2056 27.3612 16.9501 27.6167C16.6945 27.8723 16.3778 28.0001 16.0001 28.0001C15.6223 28.0001 15.3056 27.8723 15.0501 27.6167C14.7945 27.3612 14.6667 27.0445 14.6667 26.6667Z" fill="black" fill-opacity="0.2"/>
</g>
</svg>
