<svg width="32" height="32" viewBox="0 0 32 32" fill="none" xmlns="http://www.w3.org/2000/svg">
<mask id="mask0_32_706" style="mask-type:alpha" maskUnits="userSpaceOnUse" x="0" y="0" width="32" height="32">
<rect width="32" height="32" fill="white"/>
</mask>
<g mask="url(#mask0_32_706)">
<path d="M22.4 19.4334C22.0889 19.2556 21.8889 18.9834 21.8 18.6168C21.7111 18.2501 21.7556 17.9112 21.9333 17.6001C22.0889 17.3556 22.2167 17.0945 22.3167 16.8167C22.4167 16.539 22.4889 16.2556 22.5333 15.9668C22.6222 15.589 22.7945 15.2779 23.05 15.0334C23.3056 14.789 23.6222 14.6667 24 14.6667C24.3778 14.6667 24.6889 14.8001 24.9333 15.0667C25.1778 15.3334 25.2778 15.6556 25.2334 16.0334C25.1667 16.5445 25.05 17.0445 24.8834 17.5334C24.7167 18.0223 24.5 18.489 24.2334 18.9334C24.0556 19.2445 23.7833 19.4501 23.4167 19.5501C23.05 19.6501 22.7111 19.6112 22.4 19.4334ZM17.7334 13.9334L12.7667 8.96675C12.5222 8.7223 12.3334 8.43897 12.2 8.11675C12.0667 7.79453 12 7.45564 12 7.10008V6.66675C12 5.55564 12.3889 4.61119 13.1667 3.83341C13.9445 3.05564 14.8889 2.66675 16 2.66675C17.1111 2.66675 18.0556 3.05564 18.8334 3.83341C19.6111 4.61119 20 5.55564 20 6.66675V12.9667C20 13.5667 19.7278 13.9834 19.1833 14.2167C18.6389 14.4501 18.1556 14.3556 17.7334 13.9334ZM14.6667 26.6668V23.8668C12.6222 23.6001 10.8722 22.7445 9.41668 21.3001C7.96113 19.8556 7.07779 18.1001 6.76668 16.0334C6.72224 15.6556 6.82224 15.3334 7.06668 15.0667C7.31113 14.8001 7.62224 14.6667 8.00002 14.6667C8.37779 14.6667 8.69446 14.7945 8.95002 15.0501C9.20557 15.3056 9.37779 15.6223 9.46668 16.0001C9.77779 17.5556 10.55 18.8334 11.7833 19.8334C13.0167 20.8334 14.4222 21.3334 16 21.3334C16.7556 21.3334 17.4722 21.2167 18.15 20.9834C18.8278 20.7501 19.4445 20.4223 20 20.0001L21.9 21.9001C21.2556 22.4112 20.55 22.839 19.7833 23.1834C19.0167 23.5279 18.2 23.7556 17.3334 23.8668V26.6668C17.3334 27.0445 17.2056 27.3612 16.95 27.6168C16.6945 27.8723 16.3778 28.0001 16 28.0001C15.6222 28.0001 15.3056 27.8723 15.05 27.6168C14.7945 27.3612 14.6667 27.0445 14.6667 26.6668ZM25.4667 29.2001L2.80002 6.53342C2.55557 6.28897 2.43335 5.97786 2.43335 5.60008C2.43335 5.2223 2.55557 4.91119 2.80002 4.66675C3.04446 4.4223 3.35557 4.30008 3.73335 4.30008C4.11113 4.30008 4.42224 4.4223 4.66668 4.66675L27.3334 27.3334C27.5778 27.5779 27.7 27.889 27.7 28.2668C27.7 28.6445 27.5778 28.9556 27.3334 29.2001C27.0889 29.4445 26.7778 29.5667 26.4 29.5667C26.0222 29.5667 25.7111 29.4445 25.4667 29.2001Z" fill="white"/>
</g>
</svg>
