<svg width="32" height="32" viewBox="0 0 32 32" fill="none" xmlns="http://www.w3.org/2000/svg">
<mask id="mask0_12_1273" style="mask-type:alpha" maskUnits="userSpaceOnUse" x="0" y="0" width="32" height="32">
<rect width="32" height="32" fill="#333333"/>
<rect width="32" height="32" fill="black" fill-opacity="0.2"/>
</mask>
<g mask="url(#mask0_12_1273)">
<path d="M14.6666 14.6667H17.3333V16.5333C17.3333 16.6889 17.4 16.7944 17.5333 16.85C17.6666 16.9056 17.7889 16.8778 17.9 16.7667L20.8666 13.8C21 13.6667 21.0666 13.5111 21.0666 13.3333C21.0666 13.1556 21 13 20.8666 12.8667L17.9 9.9C17.7889 9.78889 17.6666 9.76111 17.5333 9.81667C17.4 9.87222 17.3333 9.97778 17.3333 10.1333V12H14.6666C13.5555 12 12.6111 12.3889 11.8333 13.1667C11.0555 13.9444 10.6666 14.8889 10.6666 16V17.3333C10.6666 17.7111 10.7944 18.0278 11.05 18.2833C11.3055 18.5389 11.6222 18.6667 12 18.6667C12.3778 18.6667 12.6944 18.5389 12.95 18.2833C13.2055 18.0278 13.3333 17.7111 13.3333 17.3333V16C13.3333 15.6222 13.4611 15.3056 13.7166 15.05C13.9722 14.7944 14.2889 14.6667 14.6666 14.6667ZM2.66665 28C2.28887 28 1.9722 27.8722 1.71665 27.6167C1.46109 27.3611 1.33331 27.0444 1.33331 26.6667C1.33331 26.2889 1.46109 25.9722 1.71665 25.7167C1.9722 25.4611 2.28887 25.3333 2.66665 25.3333H29.3333C29.7111 25.3333 30.0278 25.4611 30.2833 25.7167C30.5389 25.9722 30.6666 26.2889 30.6666 26.6667C30.6666 27.0444 30.5389 27.3611 30.2833 27.6167C30.0278 27.8722 29.7111 28 29.3333 28H2.66665ZM5.33331 24C4.59998 24 3.9722 23.7389 3.44998 23.2167C2.92776 22.6944 2.66665 22.0667 2.66665 21.3333V6.66667C2.66665 5.93333 2.92776 5.30556 3.44998 4.78333C3.9722 4.26111 4.59998 4 5.33331 4H26.6666C27.4 4 28.0278 4.26111 28.55 4.78333C29.0722 5.30556 29.3333 5.93333 29.3333 6.66667V21.3333C29.3333 22.0667 29.0722 22.6944 28.55 23.2167C28.0278 23.7389 27.4 24 26.6666 24H5.33331Z" fill="white"/>
</g>
</svg>
