<svg width="24" height="24" viewBox="0 0 24 24" fill="none" xmlns="http://www.w3.org/2000/svg">
<path fill-rule="evenodd" clip-rule="evenodd" d="M15 5.25003C15 4.83582 14.6642 4.50003 14.25 4.50003H9.75C9.33579 4.50003 9 4.83582 9 5.25003V8.25003H4.75C4.19772 8.25003 3.75 8.69775 3.75 9.25003V18.5C3.75 19.0523 4.19772 19.5 4.75 19.5H19.25C19.8023 19.5 20.25 19.0523 20.25 18.5V9.25003C20.25 8.69775 19.8023 8.25003 19.25 8.25003H15V5.25003ZM13.5 8.25003H10.5V6.00003L13.5 6.00003V8.25003ZM5.25 9.75003V12V12.75V13.5L11.25 13.5L11.25 15H12.75V13.5L18.75 13.5V12.75V12V9.75003H17.25L17.25 12L6.75 12V9.75003H5.25Z" fill="#525E67"/>
</svg>
