<svg width="32" height="32" viewBox="0 0 32 32" fill="none" xmlns="http://www.w3.org/2000/svg">
<mask id="mask0_400_4449" style="mask-type:alpha" maskUnits="userSpaceOnUse" x="0" y="0" width="32" height="32">
<rect width="32" height="32" fill="white"/>
</mask>
<g mask="url(#mask0_400_4449)">
<path d="M16.0889 23.4778L11.9889 27.5778C11.5667 28 11.0426 28.2111 10.4166 28.2111C9.7906 28.2111 9.26649 28 8.84427 27.5778L4.4556 23.1668C4.03338 22.7446 3.82227 22.2223 3.82227 21.6001C3.82227 20.9779 4.03338 20.4557 4.4556 20.0334L8.52227 15.9444V11.0891C8.52227 10.5927 8.75004 10.2519 9.2056 10.0668C9.66116 9.88167 10.0629 9.96311 10.4109 10.3111L21.7223 21.5891C22.0703 21.9371 22.1462 22.3389 21.9499 22.7944C21.7537 23.25 21.4074 23.4778 20.9109 23.4778H16.0889ZM22.9109 9.05578C21.4963 7.64089 19.8315 6.752 17.9166 6.38911C16.0017 6.026 14.1332 6.21489 12.3109 6.95578C12.0369 7.06689 11.7536 7.06867 11.4609 6.96111C11.1685 6.85378 10.974 6.66311 10.8776 6.38911C10.7592 6.07045 10.7666 5.76111 10.8999 5.46111C11.0333 5.16111 11.2592 4.95189 11.5776 4.83345C13.7776 3.94456 16.048 3.72789 18.3889 4.18345C20.7296 4.639 22.7666 5.73345 24.4999 7.46678C26.2184 9.18523 27.3092 11.2019 27.7723 13.5168C28.2352 15.8317 28.0407 18.0853 27.1889 20.2778C27.0703 20.6038 26.8554 20.8501 26.5443 21.0168C26.2332 21.1834 25.9147 21.2038 25.5889 21.0778C25.3 20.9742 25.1093 20.778 25.0166 20.4891C24.9239 20.2002 24.9369 19.9002 25.0556 19.5891C25.7814 17.7816 25.9554 15.9241 25.5776 14.0168C25.1998 12.1094 24.3109 10.4558 22.9109 9.05578ZM20.4223 11.5778C20.9112 12.0667 21.2982 12.6204 21.5833 13.2391C21.8684 13.8576 22.0517 14.5112 22.1333 15.2001C22.1628 15.4963 22.0665 15.7444 21.8443 15.9444C21.622 16.1444 21.3592 16.2371 21.0556 16.2224C20.7592 16.2076 20.5017 16.0927 20.2833 15.8778C20.0648 15.6631 19.9259 15.4076 19.8666 15.1111C19.7926 14.7556 19.6759 14.4111 19.5166 14.0778C19.3573 13.7444 19.1406 13.4408 18.8666 13.1668C18.5926 12.8928 18.2889 12.6687 17.9556 12.4944C17.6223 12.3204 17.274 12.1964 16.9109 12.1224C16.5998 12.0631 16.3387 11.9298 16.1276 11.7224C15.9165 11.5149 15.8036 11.2519 15.7889 10.9334C15.774 10.6223 15.8685 10.352 16.0723 10.1224C16.2758 9.89267 16.5295 9.8 16.8333 9.84445C17.5073 9.93334 18.1536 10.1241 18.7723 10.4168C19.3907 10.7094 19.9407 11.0964 20.4223 11.5778Z" fill="white"/>
</g>
</svg>
