<svg width="48" height="48" viewBox="0 0 48 48" fill="none" xmlns="http://www.w3.org/2000/svg">
<mask id="mask0_49_768" style="mask-type:alpha" maskUnits="userSpaceOnUse" x="8" y="8" width="32" height="32">
<rect x="8" y="8" width="32" height="32" fill="white"/>
</mask>
<g mask="url(#mask0_49_768)">
<path d="M24.089 31.4777L19.989 35.5777C19.5668 35.9999 19.0427 36.211 18.4167 36.211C17.7907 36.211 17.2665 35.9999 16.8443 35.5777L12.4557 31.1667C12.0334 30.7444 11.8223 30.2222 11.8223 29.6C11.8223 28.9778 12.0334 28.4555 12.4557 28.0333L16.5223 23.9443V19.089C16.5223 18.5925 16.7501 18.2518 17.2057 18.0667C17.6612 17.8815 18.063 17.963 18.411 18.311L29.7223 29.589C30.0703 29.937 30.1462 30.3388 29.95 30.7943C29.7538 31.2499 29.4074 31.4777 28.911 31.4777H24.089ZM30.911 17.0557C29.4963 15.6408 27.8316 14.7519 25.9167 14.389C24.0018 14.0259 22.1332 14.2148 20.311 14.9557C20.037 15.0668 19.7537 15.0685 19.461 14.961C19.1685 14.8537 18.9741 14.663 18.8777 14.389C18.7592 14.0703 18.7667 13.761 18.9 13.461C19.0333 13.161 19.2592 12.9518 19.5777 12.8333C21.7777 11.9444 24.0481 11.7278 26.389 12.1833C28.7297 12.6389 30.7667 13.7333 32.5 15.4667C34.2184 17.1851 35.3092 19.2018 35.7723 21.5167C36.2352 23.8315 36.0408 26.0852 35.189 28.2777C35.0703 28.6037 34.8554 28.85 34.5443 29.0167C34.2332 29.1833 33.9148 29.2037 33.589 29.0777C33.3001 28.9741 33.1093 28.7779 33.0167 28.489C32.924 28.2001 32.937 27.9001 33.0557 27.589C33.7814 25.7814 33.9554 23.924 33.5777 22.0167C33.1999 20.1093 32.311 18.4557 30.911 17.0557ZM28.4223 19.5777C28.9112 20.0665 29.2982 20.6203 29.5833 21.239C29.8684 21.8574 30.0518 22.5111 30.1333 23.2C30.1629 23.4962 30.0666 23.7443 29.8443 23.9443C29.6221 24.1443 29.3592 24.237 29.0557 24.2223C28.7592 24.2074 28.5018 24.0925 28.2833 23.8777C28.0649 23.663 27.926 23.4074 27.8667 23.111C27.7927 22.7554 27.676 22.411 27.5167 22.0777C27.3573 21.7443 27.1407 21.4407 26.8667 21.1667C26.5927 20.8927 26.289 20.6685 25.9557 20.4943C25.6223 20.3203 25.2741 20.1963 24.911 20.1223C24.5999 20.063 24.3388 19.9297 24.1277 19.7223C23.9165 19.5148 23.8037 19.2518 23.789 18.9333C23.7741 18.6222 23.8685 18.3519 24.0723 18.1223C24.2759 17.8925 24.5296 17.7999 24.8333 17.8443C25.5073 17.9332 26.1537 18.124 26.7723 18.4167C27.3908 18.7093 27.9408 19.0963 28.4223 19.5777Z" fill="white"/>
</g>
</svg>
