<svg width="24" height="24" viewBox="0 0 24 24" fill="none" xmlns="http://www.w3.org/2000/svg">
<path fill-rule="evenodd" clip-rule="evenodd" d="M10.6624 3.2509C11.055 2.03327 12.7778 2.03327 13.1705 3.2509L14.9137 8.65634L20.5933 8.64392C21.8727 8.64113 22.4051 10.2795 21.3684 11.0293L16.7662 14.3576L18.5331 19.7554C18.9311 20.9713 17.5374 21.9839 16.504 21.2296L11.9164 17.8812L7.32883 21.2296C6.29544 21.9839 4.90172 20.9713 5.29973 19.7554L7.06662 14.3576L2.46445 11.0293C1.42777 10.2795 1.96011 8.64113 3.2395 8.64392L8.91908 8.65634L10.6624 3.2509ZM11.9164 5.49516L10.5841 9.62638C10.4082 10.1717 9.9001 10.5409 9.32714 10.5396L4.98639 10.5301L8.5037 13.0739C8.96798 13.4096 9.16206 14.0069 8.98381 14.5515L7.63342 18.6768L11.1396 16.1177C11.6024 15.7799 12.2304 15.7799 12.6932 16.1177L16.1994 18.6768L14.849 14.5515C14.6708 14.0069 14.8648 13.4096 15.3291 13.0739L18.8464 10.5301L14.5057 10.5396C13.9327 10.5409 13.4246 10.1717 13.2488 9.62638L11.9164 5.49516Z" fill="#525E67"/>
</svg>
