<svg width="32" height="32" viewBox="0 0 32 32" fill="none" xmlns="http://www.w3.org/2000/svg">
<mask id="mask0_16_749" style="mask-type:alpha" maskUnits="userSpaceOnUse" x="0" y="0" width="32" height="32">
<rect width="32" height="32" fill="#D9D9D9"/>
</mask>
<g mask="url(#mask0_16_749)">
<path d="M24.2666 28H2.66665C2.28887 28 1.9722 27.8723 1.71665 27.6167C1.46109 27.3611 1.33331 27.0445 1.33331 26.6667C1.33331 26.2889 1.46109 25.9723 1.71665 25.7167C1.9722 25.4611 2.28887 25.3334 2.66665 25.3334H21.5666L20.2333 24H5.33331C4.59998 24 3.9722 23.7389 3.44998 23.2167C2.92776 22.6945 2.66665 22.0667 2.66665 21.3334V6.4667L1.83331 5.60003C1.58887 5.33337 1.46665 5.02225 1.46665 4.6667C1.46665 4.31114 1.59998 4.00003 1.86665 3.73337C2.11109 3.48892 2.4222 3.3667 2.79998 3.3667C3.17776 3.3667 3.48887 3.48892 3.73331 3.73337L28.2666 28.2667C28.5111 28.5111 28.6333 28.8223 28.6333 29.2C28.6333 29.5778 28.5111 29.8889 28.2666 30.1334C28.0222 30.3778 27.7111 30.5 27.3333 30.5C26.9555 30.5 26.6444 30.3778 26.4 30.1334L24.2666 28ZM13.3333 17.1334L10.9 14.6667C10.7889 14.8667 10.7222 15.0778 10.7 15.3C10.6778 15.5223 10.6666 15.7556 10.6666 16V17.3334C10.6666 17.7111 10.7944 18.0278 11.05 18.2834C11.3055 18.5389 11.6222 18.6667 12 18.6667C12.3778 18.6667 12.6944 18.5389 12.95 18.2834C13.2055 18.0278 13.3333 17.7111 13.3333 17.3334V17.1334ZM27.6 23.8L19.2333 15.4334L20.8666 13.8C21 13.6667 21.0666 13.5111 21.0666 13.3334C21.0666 13.1556 21 13 20.8666 12.8667L17.9 9.90003C17.7889 9.78892 17.6666 9.76114 17.5333 9.8167C17.4 9.87225 17.3333 9.97781 17.3333 10.1334V12H15.8L7.79998 4.00003H26.6666C27.4 4.00003 28.0278 4.26114 28.55 4.78337C29.0722 5.30559 29.3333 5.93337 29.3333 6.6667V21.3334C29.3333 21.9111 29.1722 22.4167 28.85 22.85C28.5278 23.2834 28.1111 23.6 27.6 23.8Z" fill="#333333"/>
<path d="M24.2666 28H2.66665C2.28887 28 1.9722 27.8723 1.71665 27.6167C1.46109 27.3611 1.33331 27.0445 1.33331 26.6667C1.33331 26.2889 1.46109 25.9723 1.71665 25.7167C1.9722 25.4611 2.28887 25.3334 2.66665 25.3334H21.5666L20.2333 24H5.33331C4.59998 24 3.9722 23.7389 3.44998 23.2167C2.92776 22.6945 2.66665 22.0667 2.66665 21.3334V6.4667L1.83331 5.60003C1.58887 5.33337 1.46665 5.02225 1.46665 4.6667C1.46665 4.31114 1.59998 4.00003 1.86665 3.73337C2.11109 3.48892 2.4222 3.3667 2.79998 3.3667C3.17776 3.3667 3.48887 3.48892 3.73331 3.73337L28.2666 28.2667C28.5111 28.5111 28.6333 28.8223 28.6333 29.2C28.6333 29.5778 28.5111 29.8889 28.2666 30.1334C28.0222 30.3778 27.7111 30.5 27.3333 30.5C26.9555 30.5 26.6444 30.3778 26.4 30.1334L24.2666 28ZM13.3333 17.1334L10.9 14.6667C10.7889 14.8667 10.7222 15.0778 10.7 15.3C10.6778 15.5223 10.6666 15.7556 10.6666 16V17.3334C10.6666 17.7111 10.7944 18.0278 11.05 18.2834C11.3055 18.5389 11.6222 18.6667 12 18.6667C12.3778 18.6667 12.6944 18.5389 12.95 18.2834C13.2055 18.0278 13.3333 17.7111 13.3333 17.3334V17.1334ZM27.6 23.8L19.2333 15.4334L20.8666 13.8C21 13.6667 21.0666 13.5111 21.0666 13.3334C21.0666 13.1556 21 13 20.8666 12.8667L17.9 9.90003C17.7889 9.78892 17.6666 9.76114 17.5333 9.8167C17.4 9.87225 17.3333 9.97781 17.3333 10.1334V12H15.8L7.79998 4.00003H26.6666C27.4 4.00003 28.0278 4.26114 28.55 4.78337C29.0722 5.30559 29.3333 5.93337 29.3333 6.6667V21.3334C29.3333 21.9111 29.1722 22.4167 28.85 22.85C28.5278 23.2834 28.1111 23.6 27.6 23.8Z" fill="black" fill-opacity="0.2"/>
</g>
</svg>
