<svg width="24" height="24" viewBox="0 0 24 24" fill="none" xmlns="http://www.w3.org/2000/svg">
<path d="M11.5 14C12.6046 14 13.5 13.1046 13.5 12C13.5 10.8954 12.6046 10 11.5 10C10.3954 10 9.5 10.8954 9.5 12C9.5 13.1046 10.3954 14 11.5 14Z" fill="#525E67"/>
<path fill-rule="evenodd" clip-rule="evenodd" d="M18 10.5V16L20 18V19H3V18L5 16V10.5C5 7.43 7.13 4.86 10 4.18V3.5C10 3.10218 10.158 2.72064 10.4393 2.43934C10.7206 2.15804 11.1022 2 11.5 2C11.8978 2 12.2794 2.15804 12.5607 2.43934C12.842 2.72064 13 3.10218 13 3.5V4.18C15.86 4.86 18 7.43 18 10.5ZM7 10.5V17H16V10.5C16 8 14 6 11.5 6C9 6 7 8 7 10.5Z" fill="#525E67"/>
<path d="M12.9142 21.4142C12.5391 21.7893 12.0304 22 11.5 22C10.9696 22 10.4609 21.7893 10.0858 21.4142C9.71071 21.0391 9.5 20.5304 9.5 20H13.5C13.5 20.5304 13.2893 21.0391 12.9142 21.4142Z" fill="#525E67"/>
</svg>
