<svg viewBox="0 0 24 24" fill="none" xmlns="http://www.w3.org/2000/svg">
<path d="M19.8519 15.8003L17.5835 16.3889C16.6411 17.7612 15.2844 18.7695 13.7274 19.2547C12.1704 19.74 10.5017 19.6746 8.98463 19.0689L10.2053 17.7658C11.6533 18.1481 13.1882 17.9305 14.4838 17.1594C15.7794 16.3883 16.7336 15.1243 17.1438 13.6361L20.2518 14.6849C20.1411 15.0646 20.0075 15.4367 19.8519 15.7991V15.8003ZM22.2185 12.7278C22.2333 12.4856 22.2411 12.2434 22.2419 12.0012C22.2417 11.2758 22.1728 10.5522 22.0361 9.84069L20.5418 10.7005C20.601 11.133 20.6307 11.5693 20.6306 12.0061C20.6306 12.2035 20.6236 12.3984 20.6119 12.5922L17.359 12.2967C17.359 12.1986 17.366 12.0993 17.366 12C17.3668 10.7053 16.9577 9.44609 16.2014 8.41528L16.0541 8.53638C16.4153 9.0328 16.6964 9.58656 16.8866 10.1762L16.7217 10.267C16.8997 10.8278 16.9905 11.4145 16.9907 12.0048C16.9907 12.0932 16.9907 12.1817 16.9836 12.2689L14.3072 12.0206C14.305 12.2315 14.2799 12.4416 14.2323 12.6467L16.786 13.5162C16.4665 14.6814 15.789 15.7069 14.8562 16.4374C13.9234 17.168 12.7861 17.5638 11.6167 17.5648C11.2421 17.5653 10.8686 17.5247 10.5023 17.4437L12.1124 15.7252L8.31113 15.2541L8.02583 11.5289L4.84305 14.8508C4.23722 13.3043 4.14125 11.5938 4.57002 9.98499C4.99879 8.37615 5.92832 6.9589 7.21435 5.95321L7.42482 5.10547C8.6798 4.2814 10.1354 3.84453 11.6213 3.84598C11.8061 3.84598 11.9885 3.85324 12.1697 3.86656L12.7275 4.83541C13.5664 4.97397 14.3737 5.27074 15.1093 5.711L15.4227 5.4046C14.6556 4.92713 13.8107 4.5988 12.9298 4.43576L12.3662 3.45359C12.1167 3.4326 11.8684 3.42211 11.6213 3.42211C10.2024 3.41826 8.80652 3.79368 7.56864 4.51205L7.80249 3.54321C8.9962 2.9641 10.2985 2.66473 11.6167 2.66641C11.8938 2.66641 12.1674 2.68094 12.4351 2.70637L13.2653 1.132C12.7214 1.04472 12.1718 1.00059 11.6213 1C9.73916 1.00072 7.89094 1.51933 6.26579 2.50276C4.64064 3.48619 3.29692 4.89914 2.37211 6.59703C1.4473 8.29492 0.974596 10.2168 1.00238 12.166C1.03016 14.1153 1.55742 16.0219 2.53021 17.6907L1.42758 22.6439L6.30815 21.5261C7.69317 22.3542 9.24077 22.8477 10.8356 22.9699C12.4304 23.0922 14.0313 22.84 15.5189 22.2322C17.0065 21.6244 18.3425 20.6766 19.4272 19.4596C20.5119 18.2425 21.3173 16.7876 21.7835 15.2032L22.5307 15.4563C22.7848 14.5898 22.9417 13.6958 22.9984 12.792L22.2162 12.723L22.2185 12.7278Z" fill="currentColor"/>
</svg>
