<svg width="24" height="24" viewBox="0 0 24 24" fill="none" xmlns="http://www.w3.org/2000/svg">
<path fill-rule="evenodd" clip-rule="evenodd" d="M21.8942 17.9395L18.0591 15.336C17.9766 15.274 17.8735 15.2533 17.7911 15.2533H11.3993C11.1931 15.2533 11.09 15.4806 11.2137 15.6459L13.0694 18.0015C12.0178 18.3528 10.8632 18.4561 9.77038 18.2495C8.22398 17.9189 6.84252 17.0304 5.91468 15.8112C4.51261 13.9515 4.24456 11.4306 5.15179 9.38495C6.16211 7.02934 8.53326 5.54158 10.9869 5.54158C11.1106 5.54158 11.2756 5.54158 11.4199 5.54158C14.0178 5.72755 16.2859 7.58724 17.0694 9.98418C17.5024 11.3686 17.4406 12.877 16.9457 14.2408H18.1416C18.2447 14.2408 18.3478 14.2615 18.4096 14.3235L19.42 15.026C19.956 13.5176 20.0798 11.8852 19.7911 10.3148C19.4406 8.49643 18.4715 6.76071 17.1313 5.45893C15.5024 3.90918 13.2549 3 10.9869 3C10.925 3 10.8219 3 10.7601 3C7.99717 3.06199 5.39921 4.44643 3.77033 6.61607C2.36826 8.49643 1.77031 10.9347 2.0796 13.249C2.43011 15.7906 3.93528 18.1255 6.05901 19.5513C7.56418 20.5224 9.37863 21.039 11.1518 20.9977H17.7705C17.8735 20.9977 17.956 20.977 18.0385 20.915L21.8736 18.3321C22.0385 18.2495 22.0385 18.0429 21.8942 17.9395Z" fill="#525E67"/>
</svg>
