<svg width="32" height="32" viewBox="0 0 32 32" fill="none" xmlns="http://www.w3.org/2000/svg">
<mask id="mask0_32_789" style="mask-type:alpha" maskUnits="userSpaceOnUse" x="0" y="0" width="32" height="32">
<rect width="32" height="32" fill="#333333"/>
<rect width="32" height="32" fill="black" fill-opacity="0.2"/>
</mask>
<g mask="url(#mask0_32_789)">
<path d="M5.33329 26.6666C4.59996 26.6666 3.97218 26.4055 3.44996 25.8833C2.92774 25.361 2.66663 24.7333 2.66663 23.9999V7.99992C2.66663 7.26659 2.92774 6.63881 3.44996 6.11659C3.97218 5.59436 4.59996 5.33325 5.33329 5.33325H21.3333C22.0666 5.33325 22.6944 5.59436 23.2166 6.11659C23.7388 6.63881 24 7.26659 24 7.99992V13.9999L28.2 9.79992C28.4222 9.5777 28.6666 9.52214 28.9333 9.63325C29.2 9.74436 29.3333 9.95547 29.3333 10.2666V21.7333C29.3333 22.0444 29.2 22.2555 28.9333 22.3666C28.6666 22.4777 28.4222 22.4221 28.2 22.1999L24 17.9999V23.9999C24 24.7333 23.7388 25.361 23.2166 25.8833C22.6944 26.4055 22.0666 26.6666 21.3333 26.6666H5.33329Z" fill="#333333"/>
<path d="M5.33329 26.6666C4.59996 26.6666 3.97218 26.4055 3.44996 25.8833C2.92774 25.361 2.66663 24.7333 2.66663 23.9999V7.99992C2.66663 7.26659 2.92774 6.63881 3.44996 6.11659C3.97218 5.59436 4.59996 5.33325 5.33329 5.33325H21.3333C22.0666 5.33325 22.6944 5.59436 23.2166 6.11659C23.7388 6.63881 24 7.26659 24 7.99992V13.9999L28.2 9.79992C28.4222 9.5777 28.6666 9.52214 28.9333 9.63325C29.2 9.74436 29.3333 9.95547 29.3333 10.2666V21.7333C29.3333 22.0444 29.2 22.2555 28.9333 22.3666C28.6666 22.4777 28.4222 22.4221 28.2 22.1999L24 17.9999V23.9999C24 24.7333 23.7388 25.361 23.2166 25.8833C22.6944 26.4055 22.0666 26.6666 21.3333 26.6666H5.33329Z" fill="black" fill-opacity="0.2"/>
</g>
</svg>
