<svg width="32" height="32" viewBox="0 0 32 32" fill="none" xmlns="http://www.w3.org/2000/svg">
<mask id="mask0_32_819" style="mask-type:alpha" maskUnits="userSpaceOnUse" x="0" y="0" width="32" height="32">
<rect width="32" height="32" fill="#D9D9D9"/>
</mask>
<g mask="url(#mask0_32_819)">
<path d="M24 14L28.2 9.80005C28.4222 9.57783 28.6667 9.52227 28.9334 9.63338C29.2 9.74449 29.3334 9.9556 29.3334 10.2667V21.7334C29.3334 22.0445 29.2 22.2556 28.9334 22.3667C28.6667 22.4778 28.4222 22.4223 28.2 22.2001L23.7667 17.7667C23.5445 18.0778 23.2278 18.2667 22.8167 18.3334C22.4056 18.4001 22.0445 18.2778 21.7334 17.9667L11.3667 7.60005C11.1445 7.37783 11.0167 7.14449 10.9834 6.90005C10.95 6.6556 10.9889 6.41116 11.1 6.16672C11.2111 5.92227 11.3667 5.72227 11.5667 5.56672C11.7667 5.41116 12.0222 5.33338 12.3334 5.33338H21.3334C22.0667 5.33338 22.6945 5.59449 23.2167 6.11672C23.7389 6.63894 24 7.26672 24 8.00005V14ZM26.4667 30.2001L1.80002 5.53338C1.55557 5.28894 1.43335 4.97783 1.43335 4.60005C1.43335 4.22227 1.55557 3.91116 1.80002 3.66672C2.04446 3.42227 2.35557 3.30005 2.73335 3.30005C3.11113 3.30005 3.42224 3.42227 3.66668 3.66672L28.3334 28.3334C28.5778 28.5778 28.7 28.8889 28.7 29.2667C28.7 29.6445 28.5778 29.9556 28.3334 30.2001C28.0889 30.4445 27.7778 30.5667 27.4 30.5667C27.0222 30.5667 26.7111 30.4445 26.4667 30.2001ZM5.33335 5.33338L24 24C24 24.7334 23.7389 25.3612 23.2167 25.8834C22.6945 26.4056 22.0667 26.6667 21.3334 26.6667H5.33335C4.60002 26.6667 3.97224 26.4056 3.45002 25.8834C2.92779 25.3612 2.66668 24.7334 2.66668 24V8.00005C2.66668 7.26672 2.92779 6.63894 3.45002 6.11672C3.97224 5.59449 4.60002 5.33338 5.33335 5.33338Z" fill="white"/>
</g>
</svg>