<svg width="62" height="56" viewBox="0 0 62 56" fill="none" xmlns="http://www.w3.org/2000/svg">
<path fill-rule="evenodd" clip-rule="evenodd" d="M61.0471 45.7445L49.2788 37.7724C49.0257 37.5826 48.7094 37.5193 48.4563 37.5193H28.8425C28.2098 37.5193 27.8934 38.2153 28.273 38.7215L33.9674 45.9343C30.7406 47.0099 27.1974 47.3263 23.8441 46.6936C19.0988 45.6812 14.8597 42.9606 12.0125 39.2276C7.71015 33.5333 6.88764 25.8143 9.67154 19.5506C12.7718 12.3377 20.0479 7.78226 27.5771 7.78226C27.9567 7.78226 28.4628 7.78226 28.9057 7.78226C36.8778 8.35169 43.8376 14.046 46.2418 21.3854C47.5705 25.6245 47.3807 30.2433 45.8622 34.4191H49.5319C49.8482 34.4191 50.1646 34.4824 50.3544 34.6722L53.4547 36.8234C55.0997 32.2046 55.4793 27.2063 54.5935 22.3977C53.5179 16.8299 50.5442 11.5152 46.4316 7.52918C41.4333 2.7839 34.5368 0 27.5771 0C27.3872 0 27.0709 0 26.8811 0C18.4029 0.189811 10.4308 4.42893 5.43242 11.0723C1.13003 16.8299 -0.70481 24.2958 0.244246 31.3821C1.31984 39.1644 5.93858 46.3139 12.4554 50.6796C17.0742 53.6533 22.642 55.2351 28.0832 55.1085H48.393C48.7094 55.1085 48.9625 55.0452 49.2155 54.8554L60.9838 46.9466C61.49 46.6936 61.49 46.0609 61.0471 45.7445Z" fill="#005BAC"/>
</svg>
