<svg width="149" height="56" viewBox="0 0 149 56" fill="none" xmlns="http://www.w3.org/2000/svg">
<path fill-rule="evenodd" clip-rule="evenodd" d="M61.0471 45.7445L49.2788 37.7724C49.0257 37.5826 48.7094 37.5193 48.4563 37.5193H28.8425C28.2098 37.5193 27.8934 38.2153 28.273 38.7215L33.9674 45.9343C30.7406 47.0099 27.1974 47.3263 23.8441 46.6936C19.0988 45.6812 14.8597 42.9606 12.0125 39.2276C7.71015 33.5333 6.88764 25.8143 9.67154 19.5506C12.7718 12.3377 20.0479 7.78226 27.5771 7.78226C27.9567 7.78226 28.4628 7.78226 28.9057 7.78226C36.8778 8.35169 43.8376 14.046 46.2418 21.3854C47.5705 25.6245 47.3807 30.2433 45.8622 34.4191H49.5319C49.8482 34.4191 50.1646 34.4824 50.3544 34.6722L53.4547 36.8234C55.0997 32.2046 55.4793 27.2063 54.5935 22.3977C53.5179 16.8299 50.5442 11.5152 46.4316 7.52918C41.4333 2.7839 34.5368 0 27.5771 0C27.3872 0 27.0709 0 26.8811 0C18.4029 0.189811 10.4308 4.42893 5.43242 11.0723C1.13003 16.8299 -0.70481 24.2958 0.244246 31.3821C1.31984 39.1644 5.93858 46.3139 12.4554 50.6796C17.0742 53.6533 22.642 55.2351 28.0832 55.1085H48.393C48.7094 55.1085 48.9625 55.0452 49.2155 54.8554L60.9838 46.9466C61.49 46.6936 61.49 46.0609 61.0471 45.7445Z" fill="#005BAC"/>
<path d="M85.9124 29.9269H77.6872V26.1307C77.6872 25.7511 77.4341 25.498 77.0545 25.498H73.2583C72.8787 25.498 72.6256 25.7511 72.6256 26.1307V41.9483C72.6256 45.6812 74.587 46.3772 77.6872 46.3772C78.1934 46.3772 83.3816 46.3772 83.3816 46.3772H85.9124C86.292 46.3772 86.5451 46.1241 86.5451 45.7445V43.8464C86.5451 43.4668 86.292 43.2137 85.9124 43.2137H81.7998C77.3709 43.2137 77.8138 42.9606 77.6872 38.4684V33.0904H85.9124C86.292 33.0904 86.5451 32.8373 86.5451 32.4577V30.5596C86.5451 30.2433 86.2287 29.9269 85.9124 29.9269Z" fill="#2C3542"/>
<path d="M100.971 29.1044H97.4276C95.9724 29.1044 94.3906 29.7371 94.3906 31.3821V29.7371C94.3906 29.3575 94.1375 29.1044 93.7579 29.1044H90.7842C90.4046 29.1044 90.1515 29.3575 90.1515 29.7371V45.7445C90.1515 46.1241 90.4046 46.3772 90.7842 46.3772H93.7579C94.1375 46.3772 94.3906 46.1241 94.3906 45.7445V36.7601C94.3906 33.6599 96.0356 31.6985 98.1868 31.6985H100.971C101.35 31.6985 101.603 31.4454 101.603 31.0658V29.8004C101.603 29.4208 101.287 29.1044 100.971 29.1044Z" fill="#2C3542"/>
<path d="M113.245 29.1044H104.704C104.324 29.1044 104.071 29.3575 104.071 29.7371V31.0025C104.071 31.3821 104.324 31.6352 104.704 31.6352H109.639C111.663 31.6352 112.676 32.4577 112.676 34.166V35.1784H108.184C105.147 35.1784 103.628 36.8867 103.628 40.24V41.2523C103.628 44.6689 105.147 46.3139 108.184 46.3139H117.231C117.611 46.3139 117.864 46.0609 117.864 45.6812V34.2293C117.864 30.8127 116.282 29.1044 113.245 29.1044ZM112.739 43.8464H110.714C109.386 43.8464 108.69 43.0239 108.69 41.3156V40.3033C108.69 38.595 109.386 37.7724 110.714 37.7724H112.739V43.8464Z" fill="#2C3542"/>
<path d="M144.88 42.8973C147.411 40.3665 148.993 36.8234 148.993 32.9639C148.993 25.1816 142.666 18.8546 134.884 18.8546C127.101 18.8546 120.774 25.1816 120.774 32.9639C120.774 40.7461 127.101 47.0732 134.884 47.0732C137.288 47.0732 139.502 46.5038 141.527 45.4282L142.792 46.9466C142.982 47.1365 143.299 47.3263 143.552 47.3263H148.044C148.297 47.3263 148.36 47.1365 148.17 46.9466L144.88 42.8973ZM134.947 42.581C129.632 42.581 125.267 38.2153 125.267 32.9006C125.267 27.5859 129.632 23.2202 134.947 23.2202C140.262 23.2202 144.627 27.5859 144.627 32.9006C144.627 35.4314 143.678 37.7092 142.096 39.4175L139.249 35.9376C139.06 35.7478 138.743 35.558 138.49 35.558H133.998C133.745 35.558 133.682 35.7478 133.871 35.9376L138.68 41.8217C137.541 42.3279 136.276 42.581 134.947 42.581Z" fill="#2C3542"/>
</svg>
