<svg width="24" height="24" viewBox="0 0 24 24" fill="none" xmlns="http://www.w3.org/2000/svg">
<path d="M4.18599 5.42091C2.34099 5.41691 -0.13001 6.58991 0.00599022 9.53091C0.21899 14.1249 4.92599 14.5509 6.80699 14.5879C7.01299 15.4499 9.22699 18.4219 10.866 18.5779H18.046C22.352 18.2919 25.576 5.55591 23.186 5.50791C19.233 5.69391 16.89 5.78791 14.881 5.80391V9.77891L14.255 9.50191L14.251 5.80591C11.945 5.80491 9.91499 5.69791 6.06199 5.50791C5.57999 5.50491 4.90799 5.42291 4.18599 5.42091V5.42091ZM4.44699 7.04591H4.66699C4.92899 9.40091 5.35499 10.7779 6.21699 12.8819C4.01699 12.6219 2.14499 11.9829 1.80099 9.59691C1.62299 8.36191 2.22299 7.07291 4.44699 7.04491V7.04591ZM13.004 9.36091C13.154 9.36291 13.307 9.39091 13.451 9.45691L14.2 9.77991L13.663 10.7589C13.5807 10.7584 13.499 10.7712 13.422 10.7969C13.3389 10.8234 13.2625 10.8642 13.1972 10.917C13.1319 10.9697 13.0789 11.0334 13.0413 11.1044C13.0037 11.1753 12.9822 11.2522 12.978 11.3305C12.9739 11.4088 12.9871 11.4871 13.017 11.5609C13.043 11.6241 13.0809 11.6829 13.129 11.7349L12.203 13.4209C12.1271 13.4223 12.052 13.4352 11.981 13.4589C11.8979 13.4854 11.8215 13.5262 11.7562 13.579C11.6909 13.6317 11.6379 13.6954 11.6003 13.7664C11.5627 13.8373 11.5412 13.9142 11.537 13.9925C11.5329 14.0708 11.5461 14.1491 11.576 14.2229C11.6058 14.2967 11.6517 14.3646 11.7111 14.4227C11.7705 14.4807 11.8422 14.5278 11.922 14.5612C12.0019 14.5947 12.0884 14.6138 12.1766 14.6175C12.2648 14.6212 12.3529 14.6095 12.436 14.5829C12.5191 14.5563 12.5955 14.5154 12.6608 14.4625C12.7261 14.4097 12.779 14.3459 12.8165 14.2748C12.8541 14.2038 12.8755 14.1268 12.8795 14.0484C12.8835 13.97 12.8701 13.8917 12.84 13.8179C12.8062 13.7351 12.7523 13.66 12.682 13.5979L13.584 11.9559C13.683 11.9653 13.783 11.9551 13.877 11.9259C13.9552 11.9006 14.0274 11.8626 14.09 11.8139C14.438 11.9599 14.723 12.0789 14.928 12.1799C15.236 12.3319 15.345 12.4329 15.378 12.5449C15.411 12.6549 15.375 12.8669 15.201 13.2389C15.071 13.5159 14.856 13.9089 14.602 14.3719C14.5164 14.3702 14.4312 14.3831 14.351 14.4099C14.2679 14.4364 14.1915 14.4772 14.1262 14.53C14.0609 14.5827 14.0079 14.6464 13.9703 14.7174C13.9327 14.7883 13.9112 14.8652 13.907 14.9435C13.9029 15.0218 13.9161 15.1001 13.946 15.1739C13.9758 15.2477 14.0217 15.3156 14.0811 15.3737C14.1405 15.4317 14.2122 15.4788 14.292 15.5122C14.3719 15.5457 14.4584 15.5648 14.5466 15.5685C14.6348 15.5722 14.7229 15.5605 14.806 15.5339C14.9736 15.4802 15.1103 15.3695 15.186 15.2262C15.2618 15.083 15.2704 14.9188 15.21 14.7699C15.1799 14.6952 15.1333 14.6265 15.073 14.5679C15.324 14.1099 15.54 13.7159 15.679 13.4199C15.867 13.0179 15.965 12.7189 15.879 12.4299C15.793 12.1409 15.529 11.9529 15.179 11.7799C14.949 11.6669 14.662 11.5469 14.319 11.4029C14.3248 11.3218 14.3118 11.2404 14.281 11.1639C14.2495 11.0861 14.2001 11.0149 14.136 10.9549L14.664 9.99191L17.588 11.2549C18.116 11.4839 18.334 12.0449 18.078 12.5149L16.068 16.1949C15.811 16.6639 15.18 16.8579 14.652 16.6299L10.515 14.8419C9.98699 14.6139 9.76799 14.0519 10.025 13.5819L12.035 9.90291C12.211 9.57991 12.565 9.38791 12.94 9.37291H13.004V9.36091Z" fill="#525E67"/>
</svg>
