<svg width="24" height="24" viewBox="0 0 24 24" fill="none" xmlns="http://www.w3.org/2000/svg">
<path d="M13.3333 7.3125V2H5C4.44583 2 4 2.41797 4 2.9375V21.0625C4 21.582 4.44583 22 5 22H19C19.5542 22 20 21.582 20 21.0625V8.25H14.3333C13.7833 8.25 13.3333 7.82812 13.3333 7.3125ZM16 16.5312C16 16.7891 15.775 17 15.5 17H8.5C8.225 17 8 16.7891 8 16.5312V16.2188C8 15.9609 8.225 15.75 8.5 15.75H15.5C15.775 15.75 16 15.9609 16 16.2188V16.5312ZM16 14.0312C16 14.2891 15.775 14.5 15.5 14.5H8.5C8.225 14.5 8 14.2891 8 14.0312V13.7188C8 13.4609 8.225 13.25 8.5 13.25H15.5C15.775 13.25 16 13.4609 16 13.7188V14.0312ZM16 11.2188V11.5312C16 11.7891 15.775 12 15.5 12H8.5C8.225 12 8 11.7891 8 11.5312V11.2188C8 10.9609 8.225 10.75 8.5 10.75H15.5C15.775 10.75 16 10.9609 16 11.2188ZM20 6.76172V7H14.6667V2H14.9208C15.1875 2 15.4417 2.09766 15.6292 2.27344L19.7083 6.10156C19.8958 6.27734 20 6.51563 20 6.76172Z" fill="#525E67"/>
</svg>
