<svg id="レイヤー_1" data-name="レイヤー 1" xmlns="http://www.w3.org/2000/svg" viewBox="0 0 24 24"><defs><style>.cls-1{fill:#525e67;}</style></defs><path class="cls-1" d="M22.68,20.21l-5.62-2.86s0,0,0,0A9.38,9.38,0,1,0,10.56,20h0a1.44,1.44,0,0,1,.62.14l.51.26,4.63,2.37a.92.92,0,0,0,.78,0l5.55-2A.26.26,0,0,0,22.68,20.21ZM7.54,9.53l-2.66.94a.34.34,0,0,1-.43-.2L4.34,10a.33.33,0,0,1,.21-.43l2.66-.94a.32.32,0,0,1,.42.2l.11.31A.34.34,0,0,1,7.54,9.53Zm.31-2.66-.19.28a.32.32,0,0,1-.46.08L4.87,5.64a.35.35,0,0,1-.09-.47L5,4.9a.34.34,0,0,1,.46-.09l2.33,1.6A.34.34,0,0,1,7.85,6.87Zm1-1.11L8,3.1a.34.34,0,0,1,.2-.43l.31-.11a.34.34,0,0,1,.43.2l.94,2.66a.33.33,0,0,1-.2.43L9.32,6A.34.34,0,0,1,8.89,5.76ZM15.32,16.4l-6,2.23,0-9.3a1.36,1.36,0,0,1,.8-1.47l3.76-1.39c.73-.24,1.48,0,1.48.67ZM13.9,11a1.43,1.43,0,0,0-.77,1.3c0,.55.34.87.77.72a1.44,1.44,0,0,0,.78-1.3C14.68,11.16,14.33,10.84,13.9,11Z"/></svg>