<svg width="24" height="24" viewBox="0 0 24 24" fill="none" xmlns="http://www.w3.org/2000/svg">
<path fill-rule="evenodd" clip-rule="evenodd" d="M22.1153 17.647L18.3209 15.0767C18.2393 15.0155 18.1373 14.9951 18.0557 14.9951H11.7319C11.5279 14.9951 11.4259 15.2195 11.5483 15.3827L13.3843 17.7082C12.3439 18.055 11.2015 18.157 10.1203 17.953C8.59036 17.6266 7.2236 16.7494 6.30562 15.5459C4.91845 13.7099 4.65326 11.2212 5.55084 9.20162C6.55041 6.87607 8.89636 5.4073 11.3239 5.4073C11.4463 5.4073 11.6095 5.4073 11.7523 5.4073C14.3226 5.5909 16.5666 7.42686 17.3418 9.7932C17.7702 11.16 17.709 12.6491 17.2194 13.9955H18.4025C18.5045 13.9955 18.6065 14.0159 18.6677 14.0771L19.6673 14.7707C20.1977 13.2815 20.3201 11.67 20.0345 10.1196C19.6877 8.32444 18.7289 6.61088 17.403 5.32571C15.7914 3.79574 13.5678 2.89816 11.3239 2.89816C11.2627 2.89816 11.1607 2.89816 11.0995 2.89816C8.36597 2.95936 5.79563 4.32613 4.18407 6.46808C2.7969 8.32444 2.20531 10.7316 2.51131 13.0163C2.8581 15.5255 4.34726 17.8306 6.44841 19.2382C7.93758 20.197 9.73274 20.7069 11.4871 20.6661H18.0353C18.1373 20.6661 18.2189 20.6457 18.3005 20.5845L22.0949 18.0346C22.258 17.953 22.258 17.749 22.1153 17.647Z" fill="#525E67"/>
</svg>
