<svg width="24" height="24" viewBox="0 0 24 24" fill="none" xmlns="http://www.w3.org/2000/svg">
<path fill-rule="evenodd" clip-rule="evenodd" d="M19 12.0001C19 15.8661 15.866 19.0001 12 19.0001C8.13401 19.0001 5 15.8661 5 12.0001C5 8.13407 8.13401 5.00006 12 5.00006C15.866 5.00006 19 8.13407 19 12.0001ZM21 12.0001C21 16.9706 16.9706 21.0001 12 21.0001C7.02944 21.0001 3 16.9706 3 12.0001C3 7.0295 7.02944 3.00006 12 3.00006C16.9706 3.00006 21 7.0295 21 12.0001ZM7.93345 15.4414C7.72105 16.06 8.18073 16.7039 8.83482 16.7039C9.25795 16.7039 9.63041 16.4249 9.74939 16.0188L10.2551 14.2929H13.6884L14.1763 15.9921C14.2973 16.4135 14.6828 16.7039 15.1212 16.7039C15.7965 16.7039 16.2707 16.0387 16.0506 15.4004L13.285 7.37794C13.1459 6.97457 12.7662 6.70386 12.3396 6.70386H11.6473C11.2201 6.70386 10.8401 6.97515 10.7014 7.37913L7.93345 15.4414ZM13.2645 12.8271H10.679L11.9467 8.40239C11.949 8.39434 11.9563 8.38879 11.9647 8.38879C11.9731 8.38879 11.9804 8.39431 11.9827 8.40234L13.2645 12.8271Z" fill="#525E67"/>
</svg>
