<svg width="24" height="24" viewBox="0 0 24 24" fill="none" xmlns="http://www.w3.org/2000/svg">
<path fill-rule="evenodd" clip-rule="evenodd" d="M21 12.0001C21 16.9706 16.9706 21.0001 12 21.0001C7.02944 21.0001 3 16.9706 3 12.0001C3 7.0295 7.02944 3.00006 12 3.00006C16.9706 3.00006 21 7.0295 21 12.0001ZM17.6711 16.1044C18.5071 14.9513 19 13.5333 19 12.0001C19 10.4669 18.5071 9.04884 17.6711 7.89573C16.5085 9.38799 15.9999 10.7344 15.9999 12.0001C15.9999 13.2658 16.5085 14.6122 17.6711 16.1044ZM16.2659 17.5504C14.8099 15.7503 13.9999 13.9189 13.9999 12.0001C13.9999 10.0813 14.8099 8.24986 16.266 6.44972C15.085 5.54064 13.6056 5.00006 12 5.00006C10.6705 5.00006 9.42752 5.37072 8.36883 6.01433C10.054 7.95473 11.0001 9.92637 11.0001 12.0001C11.0001 14.0738 10.0541 16.0454 8.36887 17.9858C9.42755 18.6294 10.6705 19.0001 12 19.0001C13.6056 19.0001 15.0849 18.4595 16.2659 17.5504ZM5 12.0001C5 10.1845 5.69118 8.53041 6.82476 7.28651C8.34577 9.02493 9.00011 10.5644 9.00011 12.0001C9.00011 13.4357 8.34578 14.9752 6.82479 16.7136C5.69119 15.4697 5 13.8156 5 12.0001Z" fill="#525E67"/>
</svg>
