<svg width="24" height="24" viewBox="0 0 24 24" fill="none" xmlns="http://www.w3.org/2000/svg">
<path fill-rule="evenodd" clip-rule="evenodd" d="M11.1936 1.9087C11.382 1.65182 11.6815 1.50006 12 1.50006C12.3185 1.50006 12.618 1.65182 12.8064 1.9087L18.3064 9.4087C18.5293 9.71258 18.5623 10.1159 18.392 10.4521C18.2217 10.7882 17.8768 11.0001 17.5 11.0001H16.3317L19.8412 16.4593C20.039 16.767 20.053 17.1582 19.8777 17.4792C19.7024 17.8003 19.3658 18.0001 19 18.0001H13V21.0001C13 21.5523 12.5523 22.0001 12 22.0001C11.4477 22.0001 11 21.5523 11 21.0001V18.0001H5C4.63419 18.0001 4.29758 17.8003 4.12229 17.4792C3.947 17.1582 3.96101 16.767 4.15882 16.4593L7.66833 11.0001H6.5C6.12316 11.0001 5.77833 10.7882 5.60799 10.4521C5.43766 10.1159 5.47075 9.71258 5.6936 9.4087L11.1936 1.9087ZM17.1683 16.0001L13.6588 10.5408C13.461 10.2331 13.447 9.84195 13.6223 9.52087C13.7976 9.1998 14.1342 9.00006 14.5 9.00006H15.5266L12 4.19107L8.47341 9.00006H9.5C9.86581 9.00006 10.2024 9.1998 10.3777 9.52087C10.553 9.84195 10.539 10.2331 10.3412 10.5408L6.83167 16.0001H17.1683Z" fill="#525E67"/>
</svg>
