<svg width="24" height="24" viewBox="0 0 24 24" fill="none" xmlns="http://www.w3.org/2000/svg">
<path fill-rule="evenodd" clip-rule="evenodd" d="M9.14875 13.1029C9.68234 13.4773 10 14.0882 10 14.7401V16.0001H14V14.7401C14 14.0882 14.3177 13.4773 14.8513 13.1029C16.1572 12.1866 17 10.693 17 9.00006C17 7.67398 16.4732 6.40221 15.5355 5.46453C14.5979 4.52685 13.3261 4.00006 12 4.00006C10.6739 4.00006 9.40215 4.52685 8.46447 5.46453C7.52678 6.40221 7 7.67398 7 9.00006C7 10.693 7.8428 12.1866 9.14875 13.1029ZM9 21.0001C9 21.2653 9.10536 21.5196 9.29289 21.7072C9.48043 21.8947 9.73478 22.0001 10 22.0001H14C14.2652 22.0001 14.5196 21.8947 14.7071 21.7072C14.8946 21.5196 15 21.2653 15 21.0001V20.0001H9V21.0001ZM7.05025 4.05031C8.36301 2.73756 10.1435 2.00006 12 2.00006C13.8565 2.00006 15.637 2.73756 16.9497 4.05031C18.2625 5.36307 19 7.14355 19 9.00006C19 11.3801 17.81 13.4701 16 14.7401V17.0001C16 17.2653 15.8946 17.5196 15.7071 17.7072C15.5196 17.8947 15.2652 18.0001 15 18.0001H9C8.73478 18.0001 8.48043 17.8947 8.29289 17.7072C8.10536 17.5196 8 17.2653 8 17.0001V14.7401C6.19 13.4701 5 11.3801 5 9.00006C5 7.14355 5.7375 5.36307 7.05025 4.05031Z" fill="#525E67"/>
</svg>
