<svg width="24" height="24" viewBox="0 0 24 24" fill="none" xmlns="http://www.w3.org/2000/svg">
<path fill-rule="evenodd" clip-rule="evenodd" d="M4 5.00006C2.89543 5.00006 2 5.89549 2 7.00006V17.0001C2 18.1046 2.89543 19.0001 4 19.0001H20C21.1046 19.0001 22 18.1046 22 17.0001V7.00006C22 5.89549 21.1046 5.00006 20 5.00006H4ZM4 7.00006L20 7.00006V17.0001H4V7.00006ZM12 16.0001C14.2091 16.0001 16 14.2092 16 12.0001C16 9.79092 14.2091 8.00006 12 8.00006C9.79086 8.00006 8 9.79092 8 12.0001C8 14.2092 9.79086 16.0001 12 16.0001Z" fill="#525E67"/>
</svg>
