<svg width="24" height="24" viewBox="0 0 24 24" fill="none" xmlns="http://www.w3.org/2000/svg">
<path d="M10 12.0001C10 12.5523 9.55229 13.0001 9.00001 13.0001C8.44772 13.0001 8.00001 12.5523 8.00001 12.0001C8.00001 11.4478 8.44772 11.0001 9.00001 11.0001C9.55229 11.0001 10 11.4478 10 12.0001Z" fill="#525E67"/>
<path d="M15 13.0001C15.5523 13.0001 16 12.5523 16 12.0001C16 11.4478 15.5523 11.0001 15 11.0001C14.4477 11.0001 14 11.4478 14 12.0001C14 12.5523 14.4477 13.0001 15 13.0001Z" fill="#525E67"/>
<path fill-rule="evenodd" clip-rule="evenodd" d="M7.00001 2.00006C5.89544 2.00006 5.00001 2.89549 5.00001 4.00006V14.0001C5.00001 15.0448 5.80098 15.9024 6.82232 15.9923L3.7121 19.9699C3.3719 20.4049 3.44881 21.0334 3.88388 21.3736C4.31895 21.7138 4.94743 21.6369 5.28762 21.2018L8.87341 16.616C9.01654 16.433 9.08584 16.2157 9.08569 16.0001H14.8352C14.8351 16.2157 14.9044 16.433 15.0475 16.616L18.6333 21.2018C18.9735 21.6369 19.602 21.7138 20.037 21.3736C20.4721 21.0334 20.549 20.4049 20.2088 19.9699L17.1027 15.9975C18.1595 15.944 19 15.0702 19 14.0001V4.00006C19 2.89549 18.1046 2.00006 17 2.00006H7.00001ZM7.00001 8.00006L7.00001 4.00006H17V8.00006H7.00001ZM7 10.0001L7.00001 14.0001H17V10.0001H7Z" fill="#525E67"/>
<path d="M8.00001 19.0001C8.00001 18.4478 8.44772 18.0001 9.00001 18.0001H15C15.5523 18.0001 16 18.4478 16 19.0001C16 19.5523 15.5523 20.0001 15 20.0001H9.00001C8.44772 20.0001 8.00001 19.5523 8.00001 19.0001Z" fill="#525E67"/>
</svg>
