<svg width="24" height="24" viewBox="0 0 24 24" fill="none" xmlns="http://www.w3.org/2000/svg">
<path d="M12 17.5001C14.33 17.5001 16.3 16.0401 17.11 14.0001H6.89C7.69 16.0401 9.67 17.5001 12 17.5001ZM8.5 11.0001C8.89782 11.0001 9.27936 10.842 9.56066 10.5607C9.84196 10.2794 10 9.89789 10 9.50006C10 9.10224 9.84196 8.72071 9.56066 8.4394C9.27936 8.1581 8.89782 8.00006 8.5 8.00006C8.10218 8.00006 7.72064 8.1581 7.43934 8.4394C7.15804 8.72071 7 9.10224 7 9.50006C7 9.89789 7.15804 10.2794 7.43934 10.5607C7.72064 10.842 8.10218 11.0001 8.5 11.0001ZM15.5 11.0001C15.8978 11.0001 16.2794 10.842 16.5607 10.5607C16.842 10.2794 17 9.89789 17 9.50006C17 9.10224 16.842 8.72071 16.5607 8.4394C16.2794 8.1581 15.8978 8.00006 15.5 8.00006C15.1022 8.00006 14.7206 8.1581 14.4393 8.4394C14.158 8.72071 14 9.10224 14 9.50006C14 9.89789 14.158 10.2794 14.4393 10.5607C14.7206 10.842 15.1022 11.0001 15.5 11.0001ZM12 20.0001C9.87827 20.0001 7.84344 19.1572 6.34315 17.6569C4.84285 16.1566 4 14.1218 4 12.0001C4 9.87833 4.84285 7.8435 6.34315 6.34321C7.84344 4.84292 9.87827 4.00006 12 4.00006C14.1217 4.00006 16.1566 4.84292 17.6569 6.34321C19.1571 7.8435 20 9.87833 20 12.0001C20 14.1218 19.1571 16.1566 17.6569 17.6569C16.1566 19.1572 14.1217 20.0001 12 20.0001ZM12 2.00006C6.47 2.00006 2 6.50006 2 12.0001C2 14.6522 3.05357 17.1958 4.92893 19.0711C5.85752 19.9997 6.95991 20.7363 8.17317 21.2389C9.38642 21.7414 10.6868 22.0001 12 22.0001C14.6522 22.0001 17.1957 20.9465 19.0711 19.0711C20.9464 17.1958 22 14.6522 22 12.0001C22 10.6868 21.7413 9.38648 21.2388 8.17323C20.7362 6.95997 19.9997 5.85758 19.0711 4.92899C18.1425 4.00041 17.0401 3.26381 15.8268 2.76127C14.6136 2.25872 13.3132 2.00006 12 2.00006Z" fill="#525E67"/>
</svg>
