<svg width="24" height="24" viewBox="0 0 24 24" fill="none" xmlns="http://www.w3.org/2000/svg">
<path fill-rule="evenodd" clip-rule="evenodd" d="M12 17.3334C9.6496 15.2685 7.86197 13.6892 6.63801 12.2384C5.43124 10.8081 5 9.76079 5 8.7957C5 7.26759 6.21995 6.00006 7.95 6.00006C8.93456 6.00006 9.89555 6.45426 10.503 7.13991L12 8.82977L13.497 7.13991C14.1045 6.45426 15.0654 6.00006 16.05 6.00006C17.78 6.00006 19 7.26759 19 8.7957C19 9.76079 18.5688 10.8081 17.362 12.2384C16.138 13.6892 14.3504 15.2685 12 17.3334ZM13.305 18.8491C17.94 14.7772 21 12.0829 21 8.7957C21 6.10142 18.822 4.00006 16.05 4.00006C14.9209 4.00006 13.8246 4.3672 12.933 4.98711C12.588 5.22699 12.2737 5.50473 12 5.81368C11.7263 5.50473 11.412 5.22699 11.067 4.98711C10.1754 4.3672 9.07908 4.00006 7.95 4.00006C5.178 4.00006 3 6.10142 3 8.7957C3 12.0829 6.06 14.7772 10.695 18.8491L11.3385 19.4167C11.7165 19.75 12.2835 19.75 12.6615 19.4167L13.305 18.8491Z" fill="#525E67"/>
</svg>
