<svg width="24" height="24" viewBox="0 0 24 24" fill="none" xmlns="http://www.w3.org/2000/svg">
<path fill-rule="evenodd" clip-rule="evenodd" d="M12 3.00006C12 2.44778 11.5523 2.00006 11 2.00006C10.4477 2.00006 10 2.44778 10 3.00006V5.50006H3.5C3.22881 5.50006 2.96924 5.61021 2.78081 5.80525C2.59238 6.00028 2.49125 6.26349 2.50059 6.53452L3.00059 21.0345C3.01917 21.5731 3.46113 22.0001 4 22.0001H20C21.1046 22.0001 22 21.1046 22 20.0001V17.0001C22 16.7951 21.9692 16.5973 21.9119 16.4111C21.9685 16.2857 22 16.1466 22 16.0001C22 11.5818 18.4183 8.00006 14 8.00006C13.9682 8.00006 13.9364 8.00025 13.9046 8.00062C13.9385 7.9054 13.9585 7.80338 13.9619 7.69694L13.9995 6.5323C14.0082 6.26163 13.9068 5.999 13.7184 5.80445C13.53 5.60989 13.2708 5.50006 13 5.50006H12V3.00006ZM11.963 7.63246C11.956 7.84924 12.0185 8.05214 12.1305 8.21969C8.61401 9.06157 6 12.2255 6 16.0001C6 16.1466 6.03151 16.2857 6.08812 16.4111C6.03084 16.5973 6 16.7951 6 17.0001V20.0001H4.96611L4.53508 7.50006H11.9672L11.963 7.63246ZM8 20.0001V17.0001H9.01249C8.93729 17.7187 9.20386 18.4452 9.75115 18.9333L10.947 20.0001H8ZM19.917 15.0001C19.441 12.1623 16.973 10.0001 14 10.0001C11.027 10.0001 8.55904 12.1623 8.08296 15.0001H19.917ZM17.053 20.0001L18.2488 18.9333C18.7961 18.4452 19.0627 17.7187 18.9875 17.0001H20V20.0001H17.053ZM14 19.7601L16.8251 17.2401H11.1749L14 19.7601Z" fill="#525E67"/>
</svg>
