<svg viewBox="0 0 24 24" fill="none" xmlns="http://www.w3.org/2000/svg">
<path d="M18.257 18.186C18.257 18.186 17.227 18.353 16.776 18.918C14.801 21.263 12.096 22.226 9.21998 22.226C3.23198 22.226 0.248979 17.265 1.14998 11.78C2.07298 6.10798 6.57998 1.22998 12.697 1.22998C15.467 1.22998 17.763 2.50698 19.115 4.62098C19.523 5.27098 20.06 5.98198 20.295 6.71498L18.257 18.185V18.186ZM4.75698 11.529C4.11198 15.422 5.89398 19.107 10.229 19.107C14.694 19.107 17.613 15.59 18.257 11.571C18.9 7.59398 16.861 4.37098 12.569 4.37098C8.53398 4.37098 5.37898 7.80298 4.75598 11.529H4.75698Z" fill="currentColor"/>
<path d="M21.755 1.02096C21.3753 0.961352 20.9875 1.05287 20.6745 1.27589C20.3616 1.49891 20.1485 1.83567 20.081 2.21396C19.995 2.71596 20.188 3.19796 20.596 3.53296L18.278 17.976L16.282 9.91696C16.862 9.37296 16.862 8.45196 16.303 7.88696C15.745 7.32196 14.801 7.32196 14.221 7.86596C13.857 8.22196 13.706 8.74496 13.814 9.22596C13.857 9.37296 13.921 9.51996 14.007 9.66596L11.753 14.69H11.689L10.015 12.785C10.0762 12.6049 10.1009 12.4144 10.0875 12.2247C10.0741 12.0349 10.0229 11.8498 9.93687 11.6801C9.85088 11.5105 9.73183 11.3597 9.58674 11.2367C9.44164 11.1137 9.27342 11.021 9.09197 10.964C8.31897 10.713 7.48197 11.11 7.22397 11.864C7.16287 12.0386 7.13406 12.223 7.13897 12.408L5.93697 13.204C5.20697 12.869 4.32697 13.162 3.98297 13.874C3.90083 14.0437 3.85344 14.2282 3.8436 14.4165C3.83376 14.6048 3.86166 14.7932 3.92567 14.9706C3.98967 15.148 4.08849 15.3108 4.2163 15.4494C4.34412 15.5881 4.49837 15.6998 4.66997 15.778C5.39997 16.113 6.27997 15.82 6.62297 15.108C6.73097 14.899 6.77297 14.648 6.77297 14.418L7.97597 13.643C8.25497 13.769 8.55597 13.811 8.85597 13.769L10.53 15.674C10.272 16.427 10.659 17.244 11.431 17.494C12.204 17.746 13.041 17.369 13.299 16.616C13.449 16.176 13.384 15.695 13.105 15.296L14.973 11.11L17.333 20.635C17.2013 20.7718 17.0987 20.934 17.0315 21.1117C16.9643 21.2893 16.9338 21.4788 16.9419 21.6686C16.9501 21.8584 16.9966 22.0445 17.0788 22.2158C17.161 22.387 17.277 22.5399 17.42 22.665C17.7092 22.9253 18.0888 23.0622 18.4776 23.0465C18.8664 23.0308 19.2337 22.8638 19.501 22.581C19.6327 22.4441 19.7353 22.2821 19.8026 22.1045C19.8699 21.9269 19.9005 21.7375 19.8925 21.5478C19.8846 21.3581 19.8383 21.1719 19.7563 21.0006C19.6744 20.8292 19.5586 20.6763 19.416 20.551C19.394 20.53 19.373 20.509 19.351 20.509L22.034 3.80496C22.2111 3.7379 22.3731 3.63614 22.5105 3.50564C22.6478 3.37515 22.7577 3.21855 22.8337 3.04503C22.9097 2.8715 22.9503 2.68455 22.9531 2.49514C22.9559 2.30572 22.9208 2.11765 22.85 1.94196C22.7 1.43996 22.27 1.10496 21.755 1.02096V1.02096Z" fill="currentColor"/>
</svg>
