<svg viewBox="0 0 24 24" fill="none" xmlns="http://www.w3.org/2000/svg">
<path d="M11.9563 13.0084C13.1152 13.0084 14.0546 12.0234 14.0546 10.8084C14.0546 9.59337 13.1152 8.6084 11.9563 8.6084C10.7974 8.6084 9.85791 9.59337 9.85791 10.8084C9.85791 12.0234 10.7974 13.0084 11.9563 13.0084Z" fill="currentColor"/>
<path d="M11.9563 15.4833C12.5683 15.4833 13.0929 15.3917 13.6175 15.1167V19.3333L12.8306 18.6917C12.3934 18.325 11.6066 18.325 11.1694 18.6917L6.01093 22.725C5.22404 23.275 4 22.9083 4 22.0833V1.91667C4 1.45833 4.52459 1 5.13661 1H7.49727V10.8083C7.49727 13.375 9.5082 15.4833 11.9563 15.4833Z" fill="currentColor"/>
<path d="M19.9999 1.91667V22.0833C19.9999 22.9083 18.7759 23.275 17.989 22.725L16.4152 21.5333V10.8083C16.4152 8.24167 14.4043 6.13333 11.9562 6.13333C11.3442 6.13333 10.8196 6.225 10.295 6.5V1H18.8633C19.4753 1 19.9999 1.36667 19.9999 1.91667Z" fill="currentColor"/>
</svg>
