<svg viewBox="0 0 24 24" fill="none" xmlns="http://www.w3.org/2000/svg">
<path d="M15.277 20.0195C14.3959 20.5088 13.4408 20.8621 12.4487 21.0521C10.0276 21.5159 7.43251 21.011 5.3668 19.6617C3.07527 18.1675 1.47231 15.671 1.09101 12.9557C0.743027 10.477 1.40198 7.87628 2.91239 5.86245C4.64862 3.54668 7.43251 2.06837 10.4089 2.00259C10.4903 2.00074 10.5755 2 10.6569 2C13.0891 2.01146 15.488 2.9731 17.2465 4.63582C18.7013 6.01139 19.7157 7.85004 20.0859 9.82284C20.4043 11.5022 20.2525 13.2643 19.675 14.8764L18.4533 14.0456H17.0169C17.5574 12.6157 17.6315 11.004 17.1502 9.51978C16.3247 6.9527 13.8999 4.97436 11.0901 4.78735C10.9272 4.77664 10.768 4.77146 10.6051 4.77183C7.9841 4.78439 5.44456 6.36286 4.34507 8.87524C3.38255 11.0724 3.64169 13.733 5.1595 15.7335C6.16274 17.0555 7.65464 17.999 9.28721 18.3216C11.4047 18.7411 13.6926 18.0722 15.277 16.6267V20.0195Z" fill="currentColor"/>
<path fill-rule="evenodd" clip-rule="evenodd" d="M23 18.1548L18.4334 15.052H10.2257L12.7663 18.2772L10.257 21.2205H18.4427L23 18.1548Z" fill="currentColor"/>
<path d="M9 9C9 8.44772 8.55228 8 8 8C7.44772 8 7 8.44772 7 9V11C7 11.5523 7.44772 12 8 12C8.55228 12 9 11.5523 9 11V9Z" fill="currentColor"/>
<path d="M13 9C13 8.44772 12.5523 8 12 8C11.4477 8 11 8.44772 11 9V11C11 11.5523 11.4477 12 12 12C12.5523 12 13 11.5523 13 11V9Z" fill="currentColor"/>
</svg>
