<svg viewBox="0 0 24 24" fill="none" xmlns="http://www.w3.org/2000/svg">
<path d="M8.92994 18H2.07006C1.47908 18 1 18.5263 1 19.1755V21.8245C1 22.4737 1.47908 23 2.07006 23H8.92994C9.52092 23 10 22.4737 10 21.8245V19.1755C10 18.5263 9.52092 18 8.92994 18Z" fill="currentColor"/>
<path d="M21.9293 18H15.0707C14.4794 18 14 18.5263 14 19.1755V21.8245C14 22.4737 14.4794 23 15.0707 23H21.9293C22.5206 23 23 22.4737 23 21.8245V19.1755C23 18.5263 22.5206 18 21.9293 18Z" fill="currentColor"/>
<path d="M21.9539 10H2.04611C1.46836 10 1 10.421 1 10.9404V13.0596C1 13.579 1.46836 14 2.04611 14H21.9539C22.5316 14 23 13.579 23 13.0596V10.9404C23 10.421 22.5316 10 21.9539 10Z" fill="currentColor"/>
<path d="M12.9697 1H2.03034C1.4613 1 1 1.42106 1 1.94046V4.05954C1 4.57894 1.4613 5 2.03034 5H12.9697C13.5387 5 14 4.57894 14 4.05954V1.94046C14 1.42106 13.5387 1 12.9697 1Z" fill="currentColor"/>
<path d="M22.0488 1H19.9512C19.4259 1 19 1.42106 19 1.94046V4.05954C19 4.57894 19.4259 5 19.9512 5H22.0488C22.5741 5 23 4.57894 23 4.05954V1.94046C23 1.42106 22.5741 1 22.0488 1Z" fill="currentColor"/>
</svg>
