<svg viewBox="0 0 24 24" fill="none" xmlns="http://www.w3.org/2000/svg">
<path d="M4.83675 6.00001C3.14543 5.99636 0.88026 7.06621 1.00493 9.74858C1.20019 13.9386 5.51511 14.3271 7.23943 14.3609C7.42827 15.1471 9.45785 17.8577 10.9603 18H17.5423C21.4896 17.7392 24.445 6.12314 22.2541 6.07936C18.6304 6.249 16.4825 6.33474 14.6409 6.34933V9.97477L14.067 9.72213L14.0634 6.35115C11.9494 6.35024 10.0885 6.25265 6.55648 6.07936C6.11463 6.07662 5.49861 6.00183 4.83675 6.00001V6.00001ZM5.07601 7.48211H5.27768C5.51786 9.63001 5.90838 10.8859 6.69857 12.8049C4.68183 12.5678 2.96576 11.985 2.65041 9.80878C2.48724 8.68238 3.03726 7.50673 5.07601 7.4812V7.48211ZM12.9202 9.59353C13.0577 9.59536 13.198 9.62089 13.33 9.68109L14.0166 9.97568L13.5243 10.8686C13.4489 10.8681 13.374 10.8798 13.3034 10.9033C13.2273 10.9274 13.1573 10.9647 13.0974 11.0128C13.0375 11.0609 12.9889 11.119 12.9545 11.1837C12.92 11.2484 12.9003 11.3185 12.8964 11.3899C12.8926 11.4614 12.9047 11.5328 12.9322 11.6001C12.956 11.6577 12.9907 11.7114 13.0348 11.7588L12.186 13.2965C12.1164 13.2978 12.0476 13.3095 11.9825 13.3312C11.9063 13.3554 11.8363 13.3926 11.7764 13.4407C11.7165 13.4888 11.668 13.5469 11.6335 13.6116C11.599 13.6763 11.5793 13.7464 11.5755 13.8178C11.5716 13.8893 11.5838 13.9607 11.6112 14.028C11.6385 14.0953 11.6806 14.1572 11.7351 14.2102C11.7895 14.2631 11.8552 14.306 11.9284 14.3365C12.0016 14.367 12.0809 14.3845 12.1617 14.3879C12.2426 14.3913 12.3234 14.3805 12.3996 14.3563C12.4757 14.332 12.5458 14.2947 12.6056 14.2465C12.6655 14.1983 12.714 14.1401 12.7484 14.0753C12.7828 14.0105 12.8024 13.9404 12.8061 13.8689C12.8098 13.7973 12.7975 13.7259 12.7699 13.6586C12.739 13.5831 12.6895 13.5146 12.6251 13.4579L13.4519 11.9603C13.5426 11.9689 13.6344 11.9596 13.7205 11.933C13.7922 11.9099 13.8584 11.8753 13.9158 11.8308C14.2348 11.964 14.4961 12.0725 14.684 12.1646C14.9663 12.3033 15.0662 12.3954 15.0965 12.4975C15.1267 12.5979 15.0937 12.7912 14.9342 13.1305C14.8151 13.3831 14.618 13.7416 14.3851 14.1639C14.3066 14.1624 14.2285 14.1741 14.155 14.1985C14.0789 14.2227 14.0089 14.2599 13.949 14.3081C13.8891 14.3562 13.8406 14.4142 13.8061 14.479C13.7716 14.5437 13.7519 14.6137 13.7481 14.6852C13.7442 14.7566 13.7564 14.828 13.7838 14.8953C13.8111 14.9627 13.8532 15.0246 13.9076 15.0775C13.9621 15.1305 14.0278 15.1734 14.101 15.2039C14.1742 15.2344 14.2535 15.2518 14.3343 15.2552C14.4152 15.2586 14.496 15.2479 14.5721 15.2237C14.7258 15.1747 14.8511 15.0737 14.9205 14.9431C14.99 14.8124 14.9979 14.6627 14.9425 14.5269C14.9149 14.4587 14.8722 14.3961 14.8169 14.3426C15.047 13.9249 15.245 13.5656 15.3724 13.2956C15.5448 12.9289 15.6346 12.6562 15.5558 12.3926C15.4769 12.1291 15.2349 11.9576 14.9141 11.7998C14.7032 11.6967 14.4401 11.5873 14.1257 11.456C14.131 11.382 14.1192 11.3078 14.0909 11.238C14.062 11.167 14.0167 11.1021 13.9579 11.0474L14.442 10.169L17.1224 11.321C17.6064 11.5298 17.8063 12.0415 17.5716 12.4702L15.729 15.8266C15.4934 16.2543 14.915 16.4313 14.431 16.2233L10.6386 14.5925C10.1545 14.3846 9.95379 13.872 10.1894 13.4433L12.032 10.0879C12.1933 9.79327 12.5178 9.61816 12.8616 9.60448H12.9202V9.59353Z" fill="currentColor"/>
</svg>
