<svg viewBox="0 0 24 24" fill="none" xmlns="http://www.w3.org/2000/svg">
<path d="M13.5 6.84375V1H4.125C3.50156 1 3 1.45977 3 2.03125V21.9688C3 22.5402 3.50156 23 4.125 23H19.875C20.4985 23 21 22.5402 21 21.9688V7.875H14.625C14.0062 7.875 13.5 7.41093 13.5 6.84375ZM16.5 16.9843C16.5 17.268 16.2469 17.5 15.9375 17.5H8.0625C7.75312 17.5 7.5 17.268 7.5 16.9843V16.6407C7.5 16.357 7.75312 16.125 8.0625 16.125H15.9375C16.2469 16.125 16.5 16.357 16.5 16.6407V16.9843ZM16.5 14.2343C16.5 14.518 16.2469 14.75 15.9375 14.75H8.0625C7.75312 14.75 7.5 14.518 7.5 14.2343V13.8907C7.5 13.607 7.75312 13.375 8.0625 13.375H15.9375C16.2469 13.375 16.5 13.607 16.5 13.8907V14.2343ZM16.5 11.1407V11.4843C16.5 11.768 16.2469 12 15.9375 12H8.0625C7.75312 12 7.5 11.768 7.5 11.4843V11.1407C7.5 10.857 7.75312 10.625 8.0625 10.625H15.9375C16.2469 10.625 16.5 10.857 16.5 11.1407ZM21 6.23789V6.5H15V1H15.2859C15.5859 1 15.8719 1.10743 16.0828 1.30078L20.6718 5.51172C20.8828 5.70507 21 5.96719 21 6.23789Z" fill="currentColor"/>
</svg>
