<svg xmlns="http://www.w3.org/2000/svg" viewBox="0 0 243.93 289.43">
<path d="M195,59.7c-26.32-9.31-64.87-23.3-61.48-57.35a2.52,2.52,0,0,1,4-1.9c14.49,9.84,28.82,20.73,43.57,30,8.06,5.15,14.71,12.94,16.55,22.35C198,55.7,200.2,60.25,195,59.7Z" fill="currentColor"/>
<path d="M195,59.7c-26.32-9.31-64.87-23.3-61.48-57.35a2.52,2.52,0,0,1,4-1.9c14.49,9.84,28.82,20.73,43.57,30,8.06,5.15,14.71,12.94,16.55,22.35C198,55.7,200.2,60.25,195,59.7Z" fill="currentColor"/>
<path d="M207.4,86.13c-20-.14-41.72-.47-59-12a0,0,0,0,1,0,0,34.88,34.88,0,0,1-12-17.67c-.61-3.54-5.42-19.33,1.8-16.72,15,10.5,30.9,19.8,47.2,24.45,2.09.66,10.89,3.85,13.53,6C202.31,71.69,215.23,84.8,207.4,86.13Z" fill="currentColor"/>
<path d="M227.5,122.61c-17.84-4.66-35.31-6.31-52.52-7A74.8,74.8,0,0,0,145.5,93.36c-1.31-2.53-4.52-10,.86-8.91a114.76,114.76,0,0,0,26.87,7.72c19.49,2.37,43.91-1.48,53.8,20.32C228.27,115.29,233.6,122.73,227.5,122.61Z" fill="currentColor"/>
<path d="M227.5,122.61c-17.84-4.66-35.31-6.31-52.52-7A74.8,74.8,0,0,0,145.5,93.36c-1.31-2.53-4.52-10,.86-8.91a114.76,114.76,0,0,0,26.87,7.72c19.49,2.37,43.91-1.48,53.8,20.32C228.27,115.29,233.6,122.73,227.5,122.61Z" fill="currentColor"/>
<path d="M240.21,168.83c-14.73-12.87-32.27-18.89-50.51-22.19a73.64,73.64,0,0,0-9.12-23.06c23.94,2,58,3.12,62.29,33.7C243.17,160.26,246.27,171.75,240.21,168.83Z" fill="currentColor"/>
<path d="M236.54,211.82c-13,30.28-3.1-17.89-46-39.21a74,74,0,0,0,.33-18.4C218.21,159.57,251.44,178.77,236.54,211.82Z" fill="currentColor"/>
<path d="M236.54,211.82c-13,30.28-3.1-17.89-46-39.21a74,74,0,0,0,.33-18.4C218.21,159.57,251.44,178.77,236.54,211.82Z" fill="currentColor"/>
<path d="M218.6,226.63c.3,12.36-7,23.32-16.28,30.94-7.55,5.1-3.48-12-5.07-15.64-1.86-16.52-7.21-32-13.65-46.87a75.56,75.56,0,0,0,5.74-15.91C205.46,188.77,217.88,208.25,218.6,226.63Z" fill="currentColor"/>
<path d="M188.83,250.19c-.09,16.65-14.41,28.56-29.76,32.74-2.5.83-4.58-1-3.63-3,9.67-19.32,11-40.2,9.09-60.73a74.94,74.94,0,0,0,14.6-16.37A126.1,126.1,0,0,1,188.83,250.19Z" fill="currentColor"/>
<path d="M188.83,250.19c-.09,16.65-14.41,28.56-29.76,32.74-2.5.83-4.58-1-3.63-3,9.67-19.32,11-40.2,9.09-60.73a74.94,74.94,0,0,0,14.6-16.37A126.1,126.1,0,0,1,188.83,250.19Z" fill="currentColor"/>
<path d="M157.25,244.87c-1.5,21.33-15,45.94-40.29,44.5-3.13-.21-13.79.75-10.29-4.66a99.48,99.48,0,0,0,32.44-51.6,74,74,0,0,0,18.7-8.91A87.25,87.25,0,0,1,157.25,244.87Z" fill="currentColor"/>
<path d="M131.07,235.13C123,258.78,98.3,293.44,68.14,278.22c-2.75-1.5-13-4.8-7.62-8.4,20.07-6,36.36-18.47,49.51-33.65A74.82,74.82,0,0,0,131.07,235.13Z" fill="currentColor"/>
<path d="M131.07,235.13C123,258.78,98.3,293.44,68.14,278.22c-2.75-1.5-13-4.8-7.62-8.4,20.07-6,36.36-18.47,49.51-33.65A74.82,74.82,0,0,0,131.07,235.13Z" fill="currentColor"/>
<path d="M73.8,222.71C49.93,232,11.71,236,2.33,204.69c-.81-3-5.33-12.78,1-11.28,17.89,10.06,36.35,14.09,54,13.22A75,75,0,0,0,73.8,222.71Z" fill="currentColor"/>
<path d="M101.74,234.93c-14.48,14.19-35.27,30-57.2,24.23-4.44.58-30.93-19.49-20.74-21.77,18.57,1.78,36.31-.73,52.86-8.47,1.92-.65,3.79-2.53,5.59-1A73.35,73.35,0,0,0,101.74,234.93Z" fill="currentColor"/>
<path d="M73.8,222.71C49.93,232,11.71,236,2.33,204.69c-.81-3-5.33-12.78,1-11.28,17.89,10.06,36.35,14.09,54,13.22A75,75,0,0,0,73.8,222.71Z" fill="currentColor"/>
<path d="M116.74,108a54.43,54.43,0,1,0,54.42,54.43A54.5,54.5,0,0,0,116.74,108Zm18.92,65.35a8,8,0,0,1-8,8H105.82a8,8,0,0,1-8-8V151.49a8,8,0,0,1,8-8h21.84a8,8,0,0,1,8,8Z" fill="currentColor"/>
</svg>
