<svg xmlns="http://www.w3.org/2000/svg" xmlns:xlink="http://www.w3.org/1999/xlink" viewBox="0 0 24 24" version="1.1">
  <path d="M 6 12.367188 L 6 23.101562 C 6 23.339844 5.902344 23.566406 5.722656 23.734375 C 5.546875 23.902344 5.304688 23.996094 5.054688 23.996094 L 0.9375 23.996094 C 0.6875 23.996094 0.449219 23.902344 0.277344 23.730469 C 0.0976562 23.5625 0 23.339844 0 23.101562 L 0 2.15625 C 0 1.917969 0.0976562 1.691406 0.277344 1.523438 C 0.453125 1.355469 0.695312 1.261719 0.941406 1.261719 L 5.0625 1.261719 C 5.3125 1.261719 5.550781 1.355469 5.730469 1.523438 C 5.90625 1.691406 6.003906 1.917969 6.003906 2.15625 Z M 23.914062 2.15625 L 23.914062 23.089844 C 23.914062 23.328125 23.816406 23.558594 23.636719 23.722656 C 23.460938 23.894531 23.222656 23.988281 22.96875 23.988281 L 17.644531 23.988281 C 17.5 23.988281 17.351562 23.957031 17.222656 23.890625 C 17.089844 23.832031 16.972656 23.738281 16.886719 23.628906 L 7.855469 12.167969 C 7.730469 12.019531 7.664062 11.828125 7.667969 11.632812 L 7.667969 3.777344 C 7.667969 3.683594 7.699219 3.59375 7.757812 3.519531 C 7.816406 3.445312 7.898438 3.390625 7.992188 3.359375 C 8.085938 3.332031 8.1875 3.332031 8.28125 3.359375 C 8.375 3.386719 8.457031 3.445312 8.515625 3.519531 L 17.066406 14.359375 C 17.125 14.433594 17.207031 14.488281 17.300781 14.519531 C 17.394531 14.546875 17.5 14.546875 17.59375 14.515625 C 17.6875 14.488281 17.769531 14.433594 17.828125 14.355469 C 17.886719 14.277344 17.914062 14.183594 17.914062 14.089844 L 17.914062 2.15625 C 17.914062 1.917969 18.015625 1.691406 18.191406 1.523438 C 18.371094 1.355469 18.609375 1.261719 18.863281 1.261719 L 22.976562 1.261719 C 23.226562 1.261719 23.464844 1.355469 23.640625 1.527344 C 23.816406 1.691406 23.914062 1.917969 23.914062 2.15625 Z M 23.914062 2.15625 "  fill="currentColor"/>
</svg>