<svg viewBox="0 0 24 24" fill="none" xmlns="http://www.w3.org/2000/svg">
<path d="M12.0168 7C9.7364 7 7.8036 8.54356 7.20456 10.6349C6.68393 9.52562 5.55572 8.74848 4.2562 8.74848C2.46907 8.74848 1 10.2153 1 11.9997C1 13.784 2.46907 15.2515 4.2562 15.2515C5.55572 15.2515 6.68393 14.4739 7.20456 13.3644C7.8036 15.4559 9.7364 17 12.0168 17C14.2803 17 16.2032 15.4792 16.8176 13.4113C17.3478 14.4956 18.4621 15.2515 19.7431 15.2515C21.5303 15.2515 23 13.784 23 11.9997C23 10.2153 21.5303 8.74848 19.7431 8.74848C18.4621 8.74848 17.3478 9.50393 16.8176 10.588C16.2032 8.52027 14.2803 7 12.0168 7ZM12.0168 8.90852C13.7382 8.90852 15.1133 10.2809 15.1133 11.9997C15.1133 13.7184 13.7382 15.0915 12.0168 15.0915C10.2954 15.0915 8.92086 13.7184 8.92086 11.9997C8.92086 10.2809 10.2954 8.90852 12.0168 8.90852ZM4.2562 10.657C5.01039 10.657 5.60161 11.2466 5.60161 11.9997C5.60161 12.7527 5.01039 13.343 4.2562 13.343C3.50201 13.343 2.91147 12.7527 2.91147 11.9997C2.91147 11.2466 3.50201 10.657 4.2562 10.657ZM19.7431 10.657C20.4973 10.657 21.0885 11.2466 21.0885 11.9997C21.0885 12.7527 20.4973 13.343 19.7431 13.343C18.9889 13.343 18.3984 12.7527 18.3984 11.9997C18.3984 11.2466 18.9889 10.657 19.7431 10.657Z" fill="currentColor"/>
</svg>
