<svg viewBox="0 0 512 512" fill="none" xmlns="http://www.w3.org/2000/svg">
<path fill-rule="evenodd" clip-rule="evenodd" d="M30 143.786C30 95.3323 30 71.1054 45.0348 56.0527C60.0697 41 84.268 41 132.665 41H305.327C353.724 41 377.922 41 392.958 56.0527C407.992 71.1054 407.992 95.3323 407.992 143.786V218.539H110.358V311.982C110.358 328.754 123.939 342.351 140.691 342.351H299.354C316.106 342.351 329.687 328.754 329.687 311.982V237.228H407.992V316.655C407.992 365.108 407.992 389.335 392.958 404.388C377.922 419.44 353.724 419.44 305.327 419.44H132.665C84.268 419.44 60.0697 419.44 45.0348 404.388C30 389.335 30 365.108 30 316.655V143.786Z" fill="currentColor"/>
<path fill-rule="evenodd" clip-rule="evenodd" d="M278.889 266.071C274.549 267.31 273.314 268.063 269.161 278.109L263.328 293.294C263.328 293.294 262.162 296.798 265.662 301.469L406.029 493.01C413.269 503.082 416.888 508.118 421.814 507.998C426.741 507.877 430.11 502.669 436.847 492.254L478.818 427.381C483.396 420.306 483.35 417.275 482.658 413.601C481.964 409.925 480.879 406.96 474.041 402.042L296.458 274.345C287.638 268.003 283.228 264.832 278.889 266.071ZM448.542 400.68C444.458 397.499 438.568 398.251 435.414 402.358L399.109 449.61C396.408 453.126 396.547 458.058 399.444 461.416L408.517 471.934C412.578 476.643 420.018 476.136 423.405 470.918L457.462 418.462C460.105 414.391 459.193 408.974 455.366 405.994L448.542 400.68Z" fill="currentColor"/>
</svg>
