<svg viewBox="0 0 24 24" fill="none" xmlns="http://www.w3.org/2000/svg">
<path fill-rule="evenodd" clip-rule="evenodd" d="M0.437037 3.2815C0.118519 4.00002 0.118519 4.92595 0.118519 6.77039C0.118519 8.61484 0.118519 9.54076 0.437037 10.2667C0.807408 11.1037 1.47407 11.7778 2.31111 12.1482C3.02963 12.4667 3.94815 12.4667 5.79259 12.4667C7.63704 12.4667 8.55555 12.4667 9.27407 12.1482C10.1111 11.7778 10.7778 11.1037 11.1481 10.2667C11.4667 9.54817 11.4667 8.62224 11.4667 6.77039C11.4667 4.91854 11.4667 4.00002 11.1481 3.2741C10.7778 2.43706 10.1111 1.76299 9.27407 1.39262C8.55555 1.0741 7.63704 1.0741 5.79259 1.0741C3.94815 1.0741 3.02963 1.0741 2.31111 1.39262C1.47407 1.76299 0.807408 2.43706 0.437037 3.2741V3.2815ZM3.8 10.2074C4.25185 10.2371 4.84444 10.2445 5.8 10.2445C6.75556 10.2445 7.34815 10.2445 7.8 10.2074C8.22963 10.1778 8.34815 10.1259 8.37778 10.1111C8.71111 9.96299 8.97778 9.69632 9.12593 9.35558C9.14074 9.32595 9.18518 9.20743 9.22222 8.7778C9.25185 8.32595 9.25926 7.72595 9.25926 6.77039C9.25926 5.81484 9.25926 5.21484 9.22222 4.76299C9.19259 4.33336 9.14074 4.20743 9.12593 4.18521C8.97778 3.85187 8.71111 3.5778 8.37778 3.42965C8.34815 3.41484 8.22963 3.37039 7.8 3.33336C7.34815 3.30373 6.75556 3.29632 5.8 3.29632C4.84444 3.29632 4.25185 3.29632 3.8 3.33336C3.37037 3.36299 3.25185 3.41484 3.22222 3.42965C2.88889 3.5778 2.62222 3.84447 2.47407 4.18521C2.45926 4.21484 2.41481 4.33336 2.37778 4.76299C2.34815 5.21484 2.34074 5.81484 2.34074 6.77039C2.34074 7.72595 2.34074 8.32595 2.37778 8.7778C2.40741 9.20743 2.45926 9.33336 2.47407 9.35558C2.62222 9.68891 2.88889 9.96299 3.22222 10.1111C3.25185 10.1259 3.37037 10.1704 3.8 10.2074Z" fill="currentColor"/>
<path fill-rule="evenodd" clip-rule="evenodd" d="M11.7926 14.6814C11.4741 15.4 11.4741 16.3259 11.4741 18.1777C11.4741 20.0296 11.4741 20.9481 11.7926 21.674C12.163 22.5111 12.8296 23.1851 13.6667 23.5555C14.3852 23.874 15.3037 23.874 17.1481 23.874C18.9926 23.874 19.9111 23.874 20.6296 23.5555C21.4667 23.1851 22.1333 22.5111 22.5037 21.674C22.8222 20.9555 22.8222 20.0296 22.8222 18.1777C22.8222 16.3259 22.8222 15.4074 22.5037 14.6814C22.1333 13.8444 21.4667 13.1703 20.6296 12.8C19.9111 12.4814 18.9926 12.4814 17.1481 12.4814C15.3037 12.4814 14.3852 12.4814 13.6667 12.8C12.8296 13.1703 12.163 13.8444 11.7926 14.6814ZM15.1481 21.6074C15.6 21.637 16.1926 21.6444 17.1481 21.6444C18.1037 21.6444 18.6963 21.6444 19.1481 21.6074C19.5778 21.5777 19.6963 21.5259 19.7259 21.5111C20.0593 21.3629 20.3259 21.0963 20.4741 20.7555C20.4889 20.7259 20.5333 20.6074 20.5704 20.1777C20.6 19.7259 20.6074 19.1259 20.6074 18.1703C20.6074 17.2148 20.6074 16.6148 20.5704 16.1629C20.5407 15.7333 20.4889 15.6074 20.4741 15.5851C20.3259 15.2518 20.0593 14.9777 19.7259 14.8296C19.6963 14.8148 19.5778 14.7703 19.1481 14.7333C18.6963 14.7037 18.1037 14.6963 17.1481 14.6963C16.1926 14.6963 15.6 14.6963 15.1481 14.7333C14.7185 14.7629 14.6 14.8148 14.5704 14.8296C14.237 14.9777 13.9704 15.2444 13.8222 15.5851C13.8074 15.6148 13.763 15.7333 13.7259 16.1629C13.6963 16.6148 13.6889 17.2148 13.6889 18.1703C13.6889 19.1259 13.6889 19.7259 13.7259 20.1777C13.7556 20.6074 13.8074 20.7333 13.8222 20.7555C13.9704 21.0889 14.237 21.3629 14.5704 21.5111C14.6 21.5259 14.7185 21.5703 15.1481 21.6074Z" fill="currentColor"/>
<path fill-rule="evenodd" clip-rule="evenodd" d="M11.6148 6.90369C11.8444 7.6148 12.4519 8.2222 13.6741 9.45183L14.4963 10.2741C15.7185 11.5037 16.3259 12.1111 17.0296 12.3481C17.6518 12.5481 18.3185 12.5481 18.9333 12.3481C19.637 12.1185 20.2518 11.5037 21.4667 10.2741L21.6889 10.0518C22.9111 8.8222 23.5185 8.2148 23.7481 7.50369C23.9481 6.88146 23.9481 6.20739 23.7481 5.58517C23.5185 4.87406 22.9111 4.26665 21.6889 3.03702L20.8667 2.2148C19.6444 0.985167 19.037 0.37776 18.3333 0.140723C17.7111 -0.0592773 17.0444 -0.0592773 16.4296 0.140723C15.7259 0.370352 15.1111 0.985167 13.8963 2.2148L13.6741 2.43702C12.4519 3.66665 11.8444 4.27406 11.6148 4.98517C11.4148 5.60739 11.4148 6.28146 11.6148 6.90369ZM15.4667 3.79998L15.2444 4.0222C14.6074 4.65924 14.2296 5.04443 13.963 5.35554C13.7852 5.56295 13.7333 5.65924 13.7259 5.68146C13.6741 5.85183 13.6741 6.03702 13.7259 6.20739C13.7333 6.22961 13.7926 6.32591 13.963 6.53332C14.2222 6.84443 14.6074 7.22961 15.2444 7.86665L16.0667 8.68887C16.7037 9.32591 17.0889 9.71109 17.3926 9.97776C17.6 10.1555 17.6963 10.2074 17.7185 10.2222C17.8889 10.2741 18.0741 10.2741 18.2444 10.2222C18.2667 10.2148 18.363 10.1555 18.5704 9.97776C18.8815 9.7185 19.2593 9.33332 19.8963 8.68887L20.1185 8.46665C20.7556 7.82961 21.1333 7.44443 21.4 7.13332C21.5778 6.92591 21.6296 6.82961 21.637 6.80739C21.6889 6.63702 21.6889 6.45183 21.637 6.28146C21.6296 6.25924 21.5704 6.16295 21.4 5.95554C21.1407 5.64443 20.7556 5.25924 20.1185 4.6222L19.2963 3.79998C18.6593 3.16294 18.2741 2.77776 17.9704 2.51109C17.763 2.33332 17.6667 2.28146 17.6444 2.26665C17.4741 2.2148 17.2889 2.2148 17.1185 2.26665C17.0963 2.27406 17 2.33332 16.7926 2.51109C16.4815 2.77035 16.1037 3.15554 15.4667 3.79998Z" fill="currentColor"/>
<path fill-rule="evenodd" clip-rule="evenodd" d="M5.73333 12.474C2.57037 12.474 0 15.0518 0 18.237C0 21.4221 2.57037 23.9999 5.73333 23.9999C8.8963 23.9999 11.4667 21.4221 11.4667 18.237C11.4667 15.0518 8.8963 12.474 5.73333 12.474ZM2.22222 18.237C2.22222 20.1851 3.8 21.7703 5.74074 21.7703C7.68148 21.7703 9.25926 20.1851 9.25926 18.237C9.25926 16.2888 7.68148 14.7036 5.74074 14.7036C3.8 14.7036 2.22222 16.2888 2.22222 18.237Z" fill="currentColor"/>
</svg>
