<svg viewBox="0 0 24 24" fill="none" xmlns="http://www.w3.org/2000/svg">
<path fill-rule="evenodd" clip-rule="evenodd" d="M18.0196 1C18.8351 1.85244 19.1079 2.76684 18.273 3.76912C18.7485 4.14921 19.1823 4.57292 19.5673 5.0345C19.3882 4.19908 19.7766 3.42391 20.5872 2.75237C21.2096 3.88599 21.25 4.93743 20.1271 5.78395C20.4606 6.28492 20.7413 6.82092 20.962 7.38611C21.1672 6.65316 21.7709 6.08596 22.6719 5.68638C22.9746 7.03585 22.715 8.13947 21.3572 8.7177C21.4723 9.27253 21.5326 9.84807 21.5326 10.4398C21.5326 10.548 21.531 10.6552 21.5279 10.7614C22.0624 10.1195 22.9192 9.79762 24 9.75864C23.7298 11.2749 22.9892 12.3087 21.3517 12.3569C21.2119 13.068 20.9947 13.7256 20.7128 14.3295C21.6359 13.8215 22.7568 13.8927 23.973 14.433C22.8976 15.8594 21.5889 16.5451 19.8689 15.7438C19.7559 15.8957 19.6382 16.0429 19.516 16.1855C19.5223 15.9414 19.5229 15.6665 19.523 15.3559C19.8576 14.9118 20.1461 14.4239 20.3789 13.8919C20.0156 13.8379 19.7155 13.7368 19.4727 13.5952C19.4396 13.3275 19.3825 13.0834 19.2799 12.8514C19.1256 12.5025 18.9042 12.1918 18.6316 11.9353C18.6325 11.612 18.6831 11.2601 18.7761 10.8881C19.7419 11.085 20.5688 11.5863 20.8354 12.4875C20.968 11.8915 21.0389 11.2524 21.0389 10.5699C21.0389 10.4835 21.0377 10.3974 21.0352 10.3116C20.2886 10.4694 19.7454 10.2897 19.3698 9.87343C19.4393 9.79787 19.5035 9.72553 19.5624 9.65576C19.7894 9.38657 19.9674 9.12102 20.0682 8.80873C20.1107 8.67712 20.1418 8.54276 20.1615 8.40718C20.4252 8.49559 20.6656 8.63581 20.8693 8.83716C20.7541 8.2601 20.582 7.70519 20.3582 7.17801C20.2606 7.2303 20.1653 7.27387 20.0724 7.30914L20.0709 7.30463C20.07 7.30177 20.0691 7.29893 20.0682 7.2961C19.9674 6.98381 19.7894 6.71825 19.5624 6.44907C19.387 6.24112 19.1637 6.01009 18.8965 5.73978C19.1601 5.72829 19.4186 5.76783 19.6617 5.87105C19.4225 5.50424 19.1552 5.1569 18.8622 4.83159C18.6896 4.99416 18.5168 5.11011 18.3448 5.18417L18.1646 5.00281L18.1487 4.98681L18.1486 4.98676L18.1486 4.98674C17.786 4.62172 17.491 4.32485 17.2321 4.10361C17.1879 4.06584 17.1438 4.02941 17.0995 3.99447C17.3366 3.89695 17.5841 3.84817 17.8347 3.86468C17.3183 3.45312 16.7502 3.09705 16.1387 2.80511C15.118 3.32475 14.3354 2.9258 13.8107 1.89029C14.9021 1.33327 15.8112 1.36057 16.3167 2.56373C16.8552 2.81229 17.3641 3.10654 17.8375 3.44153C17.2955 2.7011 17.4112 1.85385 18.0196 1ZM19.4969 16.6043C19.4983 16.5857 19.4995 16.5669 19.5008 16.5478C20.539 16.809 21.3536 17.6113 21.9395 18.8187C20.9292 19.0543 20.0132 19.0728 19.249 18.7643L19.6249 17.8056L19.4486 17.7352C19.3838 17.7093 19.3189 17.6837 19.2537 17.6584C19.2626 17.6394 19.2714 17.6203 19.2799 17.601C19.4139 17.2979 19.4702 16.9745 19.4969 16.6043ZM5.08131 17.5313C4.87695 17.2228 4.71312 16.8848 4.59748 16.5249C3.51227 16.7591 2.6647 17.5735 2.06046 18.8187C3.07081 19.0543 3.98681 19.0728 4.75101 18.7643L4.37513 17.8056L4.55139 17.7352C4.72659 17.6652 4.90313 17.5973 5.08131 17.5313ZM3.62112 13.8919C4.19663 13.8064 4.61355 13.6027 4.89547 13.3069C4.99067 13.1313 5.09828 12.9636 5.21712 12.8048C5.37212 12.423 5.40279 11.9614 5.33297 11.4466C5.18221 11.2997 5.04788 11.1359 4.93275 10.9581C4.09503 11.1916 3.40395 11.6783 3.16458 12.4875C3.03198 11.8915 2.96107 11.2524 2.96107 10.5699C2.96107 10.4835 2.9623 10.3974 2.96475 10.3116C3.65794 10.4581 4.17583 10.3137 4.54696 9.95908C4.52669 9.83409 4.51285 9.70407 4.50298 9.56773C4.47823 9.22504 4.47702 8.80674 4.47695 8.29101C3.96347 8.31714 3.48992 8.48201 3.13067 8.83716C3.24584 8.2601 3.41799 7.70519 3.64179 7.17801C3.94313 7.33944 4.22233 7.41789 4.4801 7.42475C4.48332 7.1968 4.48984 6.99345 4.50298 6.81144C4.52972 6.44131 4.58596 6.11784 4.72002 5.81479C4.72856 5.79547 4.73731 5.77629 4.74625 5.75721C4.60684 5.77775 4.4703 5.81501 4.3383 5.87105C4.57748 5.50424 4.84478 5.15692 5.13775 4.83161C5.19076 4.88155 5.24383 4.9271 5.29687 4.96839C5.5392 4.72359 5.82604 4.52347 6.14499 4.38053C6.44606 4.24562 6.76747 4.18902 7.1352 4.16209C7.16209 4.16012 7.18946 4.1583 7.21729 4.15661C6.88846 3.95503 6.53004 3.84063 6.16528 3.86468C6.68172 3.45312 7.24979 3.09705 7.86131 2.80511C8.88199 3.32475 9.66456 2.9258 10.1893 1.89029C9.09789 1.33327 8.18875 1.36057 7.68327 2.56373C7.1448 2.81231 6.63583 3.10657 6.1624 3.44158C6.70446 2.70114 6.58878 1.85387 5.98039 1C5.16487 1.85245 4.89205 2.76686 5.72701 3.76914C5.25149 4.14921 4.81767 4.57295 4.43265 5.0345C4.61173 4.19908 4.22337 3.42391 3.41278 2.75237C2.79038 3.88599 2.74999 4.93743 3.87287 5.78395C3.53937 6.28492 3.25867 6.82092 3.03796 7.38611C2.83275 6.65316 2.22904 6.08596 1.32805 5.68638C1.0254 7.03585 1.28498 8.13947 2.64284 8.7177C2.52768 9.27253 2.46735 9.84807 2.46735 10.4398C2.46735 10.548 2.46895 10.6552 2.47212 10.7614C1.93756 10.1195 1.08081 9.79762 0 9.75864C0.270192 11.2749 1.01083 12.3087 2.64832 12.3569C2.7881 13.068 3.00526 13.7256 3.28715 14.3295C2.36408 13.8215 1.2432 13.8927 0.0269408 14.433C1.10239 15.8594 2.41105 16.5451 4.13113 15.7438C4.25273 15.9073 4.37981 16.0653 4.51193 16.218C4.43937 15.912 4.40097 15.5928 4.40097 15.2644C4.40097 15.2607 4.40097 15.2569 4.40097 15.2531C4.09857 14.8368 3.8361 14.3832 3.62112 13.8919Z" fill="currentColor"/>
<path fill-rule="evenodd" clip-rule="evenodd" d="M7.2735 10.31C7.5511 10.3303 7.91811 10.3312 8.50492 10.3312C9.09171 10.3312 9.45872 10.3303 9.73634 10.31C10.0005 10.2907 10.0754 10.2591 10.0917 10.2518C10.2975 10.1596 10.4622 9.99386 10.5538 9.78666C10.561 9.77027 10.5924 9.6949 10.6116 9.42901C10.6318 9.14959 10.6326 8.78021 10.6326 8.18959C10.6326 7.59897 10.6318 7.22957 10.6116 6.95015C10.5924 6.68426 10.561 6.60889 10.5538 6.59253C10.4622 6.3853 10.2975 6.2196 10.0917 6.12736C10.0754 6.12006 10.0005 6.08853 9.73634 6.06918C9.45872 6.04886 9.09171 6.04802 8.50492 6.04802C7.91811 6.04802 7.5511 6.04886 7.2735 6.06918C7.00933 6.08853 6.93445 6.12006 6.91818 6.12736C6.71232 6.2196 6.54769 6.3853 6.45602 6.59253C6.4488 6.60889 6.41743 6.68426 6.39823 6.95015C6.37804 7.22957 6.37719 7.59897 6.37719 8.18959C6.37719 8.78021 6.37804 9.14959 6.39823 9.42901C6.41743 9.6949 6.4488 9.77027 6.45602 9.78666C6.54769 9.99386 6.71232 10.1596 6.91818 10.2518C6.93445 10.2591 7.00933 10.2907 7.2735 10.31ZM5.20647 6.03255C5.00938 6.4781 5.00938 7.0486 5.00938 8.18959C5.00938 9.33056 5.00938 9.90106 5.20647 10.3466C5.43561 10.8646 5.84718 11.2789 6.36184 11.5095C6.80451 11.7079 7.37132 11.7079 8.50492 11.7079C9.63852 11.7079 10.2053 11.7079 10.648 11.5095C11.1626 11.2789 11.5742 10.8646 11.8034 10.3466C12.0005 9.90106 12.0005 9.33056 12.0005 8.18959C12.0005 7.0486 12.0005 6.4781 11.8034 6.03255C11.5742 5.51454 11.1626 5.10028 10.648 4.86964C10.2053 4.67126 9.63852 4.67126 8.50492 4.67126C7.37132 4.67126 6.80451 4.67126 6.36184 4.86964C5.84718 5.10028 5.43561 5.51454 5.20647 6.03255Z" fill="currentColor"/>
<path fill-rule="evenodd" clip-rule="evenodd" d="M14.4574 6.35491L14.3225 6.49074C13.9304 6.88541 13.6952 7.12364 13.534 7.3147C13.4248 7.44415 13.3926 7.5035 13.386 7.51748C13.3523 7.62357 13.3523 7.73758 13.386 7.84364C13.3926 7.85765 13.4248 7.917 13.534 8.04643C13.6952 8.23748 13.9304 8.47571 14.3225 8.87041L14.8269 9.37809C15.219 9.77278 15.4557 10.0095 15.6455 10.1717C15.7741 10.2816 15.8331 10.314 15.847 10.3207C15.9524 10.3546 16.0657 10.3546 16.1711 10.3207C16.185 10.314 16.2439 10.2816 16.3725 10.1717C16.5624 10.0095 16.799 9.77278 17.1912 9.37809L17.3261 9.24226C17.7182 8.84759 17.9534 8.60936 18.1145 8.41831C18.2237 8.28885 18.256 8.22953 18.2626 8.21552C18.2963 8.10946 18.2963 7.99542 18.2626 7.88936C18.256 7.87535 18.2237 7.816 18.1145 7.68657C17.9534 7.49552 17.7182 7.25729 17.3261 6.86262L16.8217 6.35491C16.4296 5.96022 16.1929 5.72352 16.0031 5.56134C15.8744 5.45145 15.8155 5.41896 15.8016 5.4123C15.6962 5.37838 15.5829 5.37838 15.4775 5.4123C15.4636 5.41896 15.4047 5.45142 15.276 5.56134C15.0862 5.72352 14.8496 5.96022 14.4574 6.35491ZM15.4808 5.41087C15.4808 5.41094 15.4798 5.4114 15.4779 5.4121C15.48 5.41116 15.4809 5.41082 15.4808 5.41087ZM15.7983 5.41087C15.7982 5.41082 15.7992 5.41116 15.8012 5.4121C15.7993 5.4114 15.7983 5.41094 15.7983 5.41087ZM18.264 7.89271C18.264 7.89266 18.2635 7.89167 18.2628 7.88977C18.2638 7.89179 18.2641 7.89273 18.264 7.89271ZM18.264 8.21217C18.2641 8.21215 18.2638 8.2131 18.2628 8.21511C18.2635 8.21322 18.264 8.21222 18.264 8.21217ZM16.1677 10.3221C16.1678 10.3221 16.1688 10.3216 16.1706 10.3209C16.1687 10.3218 16.1677 10.3222 16.1677 10.3221ZM15.8503 10.3221C15.8504 10.3222 15.8494 10.3218 15.8474 10.3209C15.8493 10.3216 15.8503 10.3221 15.8503 10.3221ZM13.3846 7.84032C13.3846 7.84034 13.3851 7.84134 13.3858 7.84323C13.3848 7.84122 13.3845 7.84027 13.3846 7.84032ZM13.3846 7.52083C13.3845 7.52085 13.3848 7.51991 13.3858 7.5179C13.3851 7.51979 13.3846 7.5208 13.3846 7.52083ZM12.0858 8.27145C12.2268 8.70803 12.603 9.08665 13.3553 9.84388L13.8597 10.3516C14.612 11.1088 14.9882 11.4874 15.422 11.6293C15.8035 11.7541 16.2145 11.7541 16.5961 11.6293C17.0298 11.4874 17.406 11.1088 18.1584 10.3516L18.2933 10.2158C19.0456 9.45853 19.4218 9.07991 19.5627 8.64333C19.6867 8.25928 19.6867 7.8456 19.5627 7.46156C19.4218 7.02497 19.0456 6.64636 18.2933 5.88912L17.7889 5.38141C17.0366 4.62417 16.6604 4.24556 16.2266 4.10371C15.8451 3.97894 15.4341 3.97894 15.0525 4.10371C14.6187 4.24556 14.2426 4.62417 13.4903 5.38141L13.3553 5.51724C12.603 6.27448 12.2268 6.6531 12.0858 7.0897C11.9619 7.47373 11.9619 7.8874 12.0858 8.27145Z" fill="currentColor"/>
<path fill-rule="evenodd" clip-rule="evenodd" d="M2.75455 20.4289C3.43345 20.0526 4.17607 19.7005 4.99304 19.3825L5.62427 20.9926C5.65142 21.0618 5.7161 21.1089 5.78996 21.1133C6.42039 21.1501 7.01944 21.2426 7.5927 21.3724C6.18502 21.773 5.01998 22.2724 4.03779 22.8181C4.1305 22.2604 4.23064 21.8617 4.42638 21.2425L4.4769 21.0827L4.32611 21.0114C3.66691 20.6999 3.25239 20.5529 2.75455 20.4289ZM8.04948 20.2848L7.85835 21.042C7.37459 20.925 6.87149 20.8326 6.34621 20.7759C6.86759 20.5914 7.43319 20.4251 8.04948 20.2848ZM8.27064 19.8454C7.37212 20.0325 6.57382 20.2739 5.85864 20.5485L4.86776 18.021C6.88225 17.2365 9.08887 16.7177 11.9997 16.7177C14.9105 16.7177 17.1171 17.2365 19.1316 18.021L18.1407 20.5485C17.4256 20.2739 16.6273 20.0325 15.7287 19.8454C15.6888 19.8371 15.6487 19.8289 15.6083 19.8208C14.4127 19.5806 13.2413 19.4354 11.9997 19.4354C10.7581 19.4354 9.58667 19.5806 8.39103 19.8208C8.35072 19.8289 8.31059 19.8371 8.27064 19.8454ZM15.9499 20.2848C16.5662 20.4251 17.1318 20.5914 17.6532 20.7759C17.1279 20.8326 16.6248 20.925 16.141 21.042L15.9499 20.2848ZM19.9616 22.8181C18.9794 22.2724 17.8144 21.773 16.4067 21.3724C16.9799 21.2426 17.579 21.1501 18.2094 21.1133C18.2833 21.1089 18.348 21.0618 18.3751 20.9926L18.4248 20.8659L19.0063 19.3825C19.8233 19.7005 20.5659 20.0526 21.2448 20.4289C20.747 20.5529 20.3325 20.6999 19.6733 21.0114L19.5225 21.0827L19.573 21.2425C19.7688 21.8617 19.8689 22.2604 19.9616 22.8181Z" fill="currentColor"/>
<path fill-rule="evenodd" clip-rule="evenodd" d="M7.05423 16.9167C6.59316 16.5169 6.30124 15.925 6.30124 15.2644C6.30124 14.0606 7.27086 13.0846 8.46696 13.0846C9.66305 13.0846 10.6327 14.0606 10.6327 15.2644C10.6327 15.6786 10.5179 16.0658 10.3187 16.3955C10.8043 16.3596 11.3095 16.3392 11.8374 16.3358C11.9433 15.9977 12.0005 15.6378 12.0005 15.2644C12.0005 13.3002 10.4185 11.7079 8.46696 11.7079C6.51544 11.7079 4.93343 13.3002 4.93343 15.2644C4.93343 16.0419 5.18131 16.7612 5.60187 17.3465C6.07093 17.1873 6.55321 17.043 7.05423 16.9167Z" fill="currentColor"/>
<path fill-rule="evenodd" clip-rule="evenodd" d="M13.3839 16.3757C13.3693 16.1073 13.3686 15.7556 13.3686 15.2262C13.3686 14.6356 13.3694 14.2662 13.3896 13.9868C13.4088 13.7209 13.4402 13.6455 13.4474 13.6291C13.5391 13.4219 13.7037 13.2562 13.9096 13.164C13.9258 13.1567 14.0007 13.1251 14.2649 13.1058C14.5425 13.0855 14.9095 13.0846 15.4963 13.0846C16.0831 13.0846 16.4501 13.0855 16.7277 13.1058C16.9919 13.1251 17.0668 13.1567 17.083 13.164C17.2889 13.2562 17.4535 13.4219 17.5452 13.6291C17.5524 13.6455 17.5838 13.7209 17.603 13.9868C17.6232 14.2662 17.624 14.6356 17.624 15.2262C17.624 15.8168 17.6232 16.1862 17.603 16.4656C17.5838 16.7315 17.5524 16.8069 17.5452 16.8233C17.5102 16.9024 17.4646 16.9754 17.4101 17.0406C17.8715 17.1699 18.3177 17.3143 18.7536 17.4713C18.7679 17.4423 18.7816 17.4129 18.7947 17.3832C18.9918 16.9377 18.9918 16.3672 18.9918 15.2262C18.9918 14.0852 18.9918 13.5147 18.7947 13.0692C18.5656 12.5512 18.154 12.1369 17.6394 11.9063C17.1967 11.7079 16.6299 11.7079 15.4963 11.7079C14.3627 11.7079 13.7959 11.7079 13.3532 11.9063C12.8386 12.1369 12.427 12.5512 12.1978 13.0692C12.0008 13.5147 12.0008 14.0852 12.0008 15.2262C12.0008 15.6752 12.0008 16.0358 12.0128 16.3352C12.4873 16.3355 12.9437 16.3493 13.3839 16.3757Z" fill="currentColor"/>
<path fill-rule="evenodd" clip-rule="evenodd" d="M2.75455 20.4289C3.43345 20.0526 4.17607 19.7005 4.99304 19.3825L5.62427 20.9926C5.65142 21.0618 5.7161 21.1089 5.78996 21.1133C6.42039 21.1501 7.01944 21.2426 7.5927 21.3724C6.18502 21.773 5.01998 22.2724 4.03779 22.8181C4.1305 22.2604 4.23064 21.8617 4.42638 21.2425L4.4769 21.0827L4.32611 21.0114C3.66691 20.6999 3.25239 20.5529 2.75455 20.4289ZM8.04948 20.2848L7.85835 21.042C7.37459 20.925 6.87149 20.8326 6.34621 20.7759C6.86759 20.5914 7.43319 20.4251 8.04948 20.2848ZM8.27064 19.8454C7.37212 20.0325 6.57382 20.2739 5.85864 20.5485L4.86776 18.021C6.88225 17.2365 9.08887 16.7177 11.9997 16.7177C14.9105 16.7177 17.1171 17.2365 19.1316 18.021L18.1407 20.5485C17.4256 20.2739 16.6273 20.0325 15.7287 19.8454C15.6888 19.8371 15.6487 19.8289 15.6083 19.8208C14.4127 19.5806 13.2413 19.4354 11.9997 19.4354C10.7581 19.4354 9.58667 19.5806 8.39103 19.8208C8.35072 19.8289 8.31059 19.8371 8.27064 19.8454ZM15.9499 20.2848C16.5662 20.4251 17.1318 20.5914 17.6532 20.7759C17.1279 20.8326 16.6248 20.925 16.141 21.042L15.9499 20.2848ZM19.9616 22.8181C18.9794 22.2724 17.8144 21.773 16.4067 21.3724C16.9799 21.2426 17.579 21.1501 18.2094 21.1133C18.2833 21.1089 18.348 21.0618 18.3751 20.9926L18.4248 20.8659L19.0063 19.3825C19.8233 19.7005 20.5659 20.0526 21.2448 20.4289C20.747 20.5529 20.3325 20.6999 19.6733 21.0114L19.5225 21.0827L19.573 21.2425C19.7688 21.8617 19.8689 22.2604 19.9616 22.8181Z" fill="currentColor"/>
</svg>
