<svg width="990" height="994" viewBox="0 0 990 994" fill="none" xmlns="http://www.w3.org/2000/svg">
<g clip-path="url(#clip0_4865_27)">
<path fill-rule="evenodd" clip-rule="evenodd" d="M18.1004 135.906C4.90857 165.665 4.90857 204.013 4.90857 280.403C4.90857 356.793 4.90857 395.141 18.1004 425.206C33.4397 459.873 61.0505 487.79 95.7174 503.13C125.476 516.322 163.517 516.322 239.907 516.322C316.297 516.322 354.338 516.322 384.097 503.13C418.764 487.79 446.374 459.873 461.714 425.206C474.905 395.448 474.905 357.099 474.905 280.403C474.905 203.706 474.905 165.665 461.714 135.6C446.374 100.933 418.764 73.0152 384.097 57.6759C354.338 44.484 316.297 44.484 239.907 44.484C163.517 44.484 125.476 44.484 95.7174 57.6759C61.0505 73.0152 33.4397 100.933 18.1004 135.6V135.906ZM157.381 422.752C176.095 423.979 200.638 424.286 240.214 424.286C279.789 424.286 304.332 424.286 323.046 422.752C340.84 421.525 345.748 419.377 346.976 418.764C360.781 412.628 371.825 401.583 377.961 387.471C378.575 386.244 380.415 381.336 381.949 363.542C383.176 344.828 383.483 319.978 383.483 280.403C383.483 240.827 383.483 215.978 381.949 197.264C380.722 179.47 378.575 174.255 377.961 173.334C371.825 159.529 360.781 148.178 346.976 142.042C345.748 141.429 340.84 139.588 323.046 138.054C304.332 136.827 279.789 136.52 240.214 136.52C200.638 136.52 176.095 136.52 157.381 138.054C139.588 139.281 134.679 141.429 133.452 142.042C119.647 148.178 108.602 159.222 102.467 173.334C101.853 174.562 100.012 179.47 98.4784 197.264C97.2513 215.978 96.9445 240.827 96.9445 280.403C96.9445 319.978 96.9445 344.828 98.4784 363.542C99.7056 381.336 101.853 386.551 102.467 387.471C108.602 401.277 119.647 412.628 133.452 418.764C134.679 419.377 139.588 421.218 157.381 422.752Z" fill="black"/>
<path fill-rule="evenodd" clip-rule="evenodd" d="M488.404 608.051C475.212 637.809 475.212 676.157 475.212 752.854C475.212 829.551 475.212 867.592 488.404 897.657C503.743 932.324 531.354 960.242 566.021 975.581C595.779 988.773 633.821 988.773 710.211 988.773C786.6 988.773 824.642 988.773 854.4 975.581C889.067 960.242 916.678 932.324 932.017 897.657C945.209 867.899 945.209 829.551 945.209 752.854C945.209 676.157 945.209 638.116 932.017 608.051C916.678 573.384 889.067 545.466 854.4 530.127C824.642 516.935 786.6 516.935 710.211 516.935C633.821 516.935 595.779 516.935 566.021 530.127C531.354 545.466 503.743 573.384 488.404 608.051ZM627.378 894.896C646.092 896.123 670.635 896.43 710.211 896.43C749.786 896.43 774.329 896.43 793.043 894.896C810.837 893.669 815.745 891.521 816.972 890.908C830.778 884.772 841.822 873.728 847.958 859.616C848.571 858.389 850.412 853.48 851.946 835.686C853.173 816.972 853.48 792.123 853.48 752.547C853.48 712.972 853.48 688.122 851.946 669.408C850.719 651.614 848.571 646.399 847.958 645.479C841.822 631.673 830.778 620.322 816.972 614.186C815.745 613.573 810.837 611.732 793.043 610.198C774.329 608.971 749.786 608.664 710.211 608.664C670.635 608.664 646.092 608.664 627.378 610.198C609.585 611.425 604.676 613.573 603.449 614.186C589.644 620.322 578.599 631.367 572.464 645.479C571.85 646.706 570.009 651.614 568.475 669.408C567.248 688.122 566.941 712.972 566.941 752.547C566.941 792.123 566.941 816.972 568.475 835.686C569.702 853.48 571.85 858.695 572.464 859.616C578.599 873.421 589.644 884.772 603.449 890.908C604.676 891.521 609.585 893.362 627.378 894.896Z" fill="black"/>
<path fill-rule="evenodd" clip-rule="evenodd" d="M481.041 285.925C490.552 315.376 515.708 340.533 566.328 391.46L600.381 425.513C651.001 476.439 676.157 501.596 705.302 511.413C731.072 519.696 758.683 519.696 784.146 511.413C813.291 501.903 838.754 476.439 889.067 425.513L898.271 416.309C948.891 365.383 974.047 340.226 983.558 310.775C991.841 285.005 991.841 257.087 983.558 231.317C974.047 201.865 948.891 176.709 898.271 125.782L864.218 91.7292C813.598 40.8026 788.441 15.6461 759.297 5.82894C733.527 -2.45429 705.916 -2.45429 680.452 5.82894C651.308 15.3393 625.845 40.8026 575.532 91.7292L566.328 100.933C515.708 151.859 490.552 177.016 481.041 206.467C472.758 232.237 472.758 260.155 481.041 285.925ZM640.57 157.381L631.367 166.585C604.983 192.969 589.337 208.922 578.293 221.807C570.93 230.397 568.782 234.385 568.475 235.305C566.328 242.361 566.328 250.031 568.475 257.087C568.782 258.007 571.236 261.996 578.293 270.586C589.03 283.471 604.983 299.424 631.367 325.807L665.42 359.861C691.804 386.244 707.756 402.197 720.335 413.241C728.925 420.604 732.913 422.752 733.833 423.365C740.889 425.513 748.559 425.513 755.615 423.365C756.536 423.059 760.524 420.604 769.114 413.241C781.999 402.504 797.645 386.551 824.029 359.861L833.232 350.657C859.616 324.273 875.262 308.32 886.306 295.435C893.669 286.845 895.817 282.857 896.123 281.937C898.271 274.881 898.271 267.211 896.123 260.155C895.817 259.235 893.362 255.246 886.306 246.656C875.569 233.771 859.616 217.818 833.232 191.435L799.179 157.381C772.795 130.998 756.842 115.045 744.264 104.001C735.674 96.6377 731.686 94.4902 730.765 93.8767C723.709 91.7292 716.04 91.7292 708.984 93.8767C708.063 94.1834 704.075 96.6377 695.485 104.001C682.6 114.738 666.954 130.691 640.57 157.381Z" fill="black"/>
<path fill-rule="evenodd" clip-rule="evenodd" d="M237.453 516.628C106.455 516.628 0 623.39 0 755.308C0 887.226 106.455 993.988 237.453 993.988C368.451 993.988 474.905 887.226 474.905 755.308C474.905 623.39 368.451 516.628 237.453 516.628ZM92.0359 755.308C92.0359 835.993 157.381 901.645 237.76 901.645C318.138 901.645 383.483 835.993 383.483 755.308C383.483 674.623 318.138 608.971 237.76 608.971C157.381 608.971 92.0359 674.623 92.0359 755.308Z" fill="black"/>
</g>
<defs>
<clipPath id="clip0_4865_27">
<rect width="990" height="993.988" fill="white"/>
</clipPath>
</defs>
</svg>
