<svg width="990" height="900" viewBox="0 0 990 900" fill="none" xmlns="http://www.w3.org/2000/svg">
<g clip-path="url(#clip0_4865_11)">
<path fill-rule="evenodd" clip-rule="evenodd" d="M743.307 0C776.947 35.1633 788.201 72.8823 753.76 114.226C773.375 129.905 791.27 147.383 807.152 166.423C799.765 131.962 815.785 99.9863 849.222 72.2853C874.896 119.047 876.562 162.419 830.243 197.338C844 218.003 855.579 240.113 864.684 263.427C873.148 233.193 898.051 209.796 935.217 193.313C947.702 248.979 936.994 294.503 880.983 318.355C885.733 341.242 888.221 364.983 888.221 389.393C888.221 393.854 888.155 398.275 888.024 402.656C910.075 376.178 945.416 362.902 989.999 361.294C978.854 423.841 948.303 466.483 880.757 468.473C874.991 497.806 866.032 524.929 854.404 549.842C892.481 528.886 938.717 531.824 988.888 554.112C944.526 612.952 890.543 641.237 819.59 608.181C814.929 614.447 810.074 620.52 805.037 626.401C805.293 616.332 805.32 604.992 805.322 592.179C819.125 573.862 831.025 553.736 840.629 531.79C825.643 529.564 813.264 525.394 803.247 519.553C801.882 508.508 799.53 498.442 795.296 488.87C788.93 474.48 779.797 461.663 768.553 451.082C768.59 437.743 770.679 423.23 774.515 407.885C814.353 416.006 848.463 436.684 859.46 473.86C864.931 449.273 867.855 422.91 867.855 394.759C867.855 391.193 867.804 387.641 867.704 384.103C836.906 390.611 814.499 383.2 799.006 366.029C801.871 362.912 804.52 359.928 806.947 357.05C816.313 345.946 823.654 334.992 827.813 322.11C829.566 316.681 830.849 311.139 831.663 305.546C842.538 309.193 852.457 314.977 860.859 323.283C856.108 299.479 849.008 276.589 839.776 254.843C835.75 257 831.82 258.797 827.985 260.252L827.926 260.066C827.888 259.948 827.851 259.831 827.813 259.714C823.654 246.832 816.313 235.878 806.947 224.774C799.712 216.196 790.504 206.666 779.479 195.516C790.353 195.042 801.017 196.673 811.044 200.931C801.178 185.8 790.152 171.472 778.067 158.053C770.947 164.759 763.818 169.542 756.721 172.597L749.288 165.116L748.633 164.456L748.631 164.454L748.63 164.453C733.671 149.396 721.504 137.15 710.824 128.024C709 126.466 707.181 124.963 705.356 123.522C715.134 119.499 725.346 117.487 735.681 118.168C714.378 101.191 690.946 86.5035 665.72 74.4609C623.617 95.8961 591.337 79.4391 569.692 36.7245C614.711 13.7473 652.213 14.8737 673.064 64.5038C695.275 74.7571 716.269 86.8947 735.797 100.713C713.439 70.1704 718.212 35.2214 743.307 0ZM804.248 643.679C804.304 642.911 804.356 642.134 804.406 641.348C847.234 652.12 880.837 685.218 905.005 735.023C863.328 744.738 825.544 745.504 794.021 732.778L809.526 693.229L802.254 690.326C799.583 689.26 796.904 688.204 794.216 687.16C794.584 686.375 794.944 685.586 795.296 684.791C800.825 672.29 803.145 658.947 804.248 643.679ZM209.604 681.918C201.174 669.191 194.416 655.246 189.646 640.401C144.881 650.062 109.919 683.658 84.9941 735.023C126.671 744.738 164.456 745.504 195.979 732.778L180.474 693.229L187.745 690.326C194.972 687.441 202.254 684.637 209.604 681.918ZM149.371 531.79C173.111 528.263 190.309 519.86 201.938 507.66C205.865 500.418 210.304 493.497 215.206 486.948C221.6 471.198 222.865 452.158 219.985 430.923C213.766 424.864 208.225 418.107 203.476 410.77C168.92 420.402 140.413 440.481 130.539 473.86C125.069 449.273 122.144 422.91 122.144 394.759C122.144 391.193 122.195 387.641 122.296 384.103C150.89 390.145 172.253 384.189 187.562 369.562C186.726 364.406 186.155 359.043 185.748 353.419C184.727 339.283 184.677 322.028 184.674 300.754C163.493 301.832 143.959 308.633 129.14 323.283C133.891 299.479 140.992 276.589 150.224 254.843C162.654 261.502 174.171 264.738 184.804 265.021C184.937 255.618 185.206 247.23 185.748 239.722C186.851 224.454 189.171 211.111 194.701 198.61C195.053 197.813 195.414 197.022 195.783 196.235C190.032 197.082 184.4 198.619 178.955 200.931C188.821 185.8 199.847 171.473 211.932 158.054C214.119 160.114 216.308 161.993 218.496 163.696C228.492 153.598 240.324 145.343 253.481 139.447C265.9 133.882 279.158 131.547 294.327 130.436C295.436 130.355 296.565 130.28 297.713 130.21C284.149 121.895 269.364 117.176 254.318 118.168C275.621 101.191 299.054 86.5035 324.279 74.4609C366.382 95.8961 398.663 79.4391 420.307 36.7245C375.288 13.7473 337.786 14.8737 316.935 64.5038C294.723 74.7577 273.728 86.896 254.199 100.715C276.559 70.1722 271.787 35.2223 246.691 0C213.051 35.1635 201.797 72.8828 236.239 114.227C216.624 129.905 198.729 147.384 182.847 166.423C190.234 131.962 174.214 99.9862 140.777 72.2853C115.103 119.047 113.437 162.419 159.756 197.338C145.999 218.003 134.42 240.113 125.316 263.427C116.851 233.193 91.9481 209.796 54.782 193.313C42.2978 248.979 53.0055 294.503 109.017 318.355C104.267 341.242 101.778 364.983 101.778 389.393C101.778 393.854 101.844 398.275 101.975 402.656C79.9244 376.178 44.5834 362.902 0 361.294C11.1454 423.841 41.6968 466.483 109.243 468.473C115.009 497.806 123.967 524.929 135.595 549.843C97.5185 528.886 51.2822 531.824 1.11131 554.112C45.4737 612.952 99.456 641.237 170.409 608.181C175.425 614.925 180.667 621.445 186.117 627.742C183.124 615.122 181.54 601.951 181.54 588.408C181.54 588.252 181.54 588.096 181.54 587.94C169.066 570.769 158.239 552.056 149.371 531.79Z" fill="black"/>
<path fill-rule="evenodd" clip-rule="evenodd" d="M300.032 384.036C311.483 384.875 326.622 384.91 350.828 384.91C375.033 384.91 390.172 384.875 401.624 384.036C412.521 383.239 415.61 381.937 416.281 381.637C424.772 377.831 431.564 370.996 435.344 362.449C435.643 361.773 436.936 358.664 437.729 347.696C438.562 336.17 438.596 320.933 438.596 296.57C438.596 272.207 438.562 256.969 437.729 245.443C436.936 234.475 435.643 231.366 435.344 230.691C431.564 222.143 424.772 215.308 416.281 211.503C415.61 211.202 412.521 209.901 401.624 209.103C390.172 208.265 375.033 208.23 350.828 208.23C326.622 208.23 311.483 208.265 300.032 209.103C289.135 209.901 286.046 211.202 285.375 211.503C276.883 215.308 270.092 222.143 266.311 230.691C266.013 231.366 264.719 234.475 263.927 245.443C263.094 256.969 263.059 272.207 263.059 296.57C263.059 320.933 263.094 336.17 263.927 347.696C264.719 358.664 266.013 361.773 266.311 362.449C270.092 370.996 276.883 377.831 285.375 381.637C286.046 381.937 289.135 383.239 300.032 384.036ZM214.767 207.592C206.637 225.971 206.637 249.504 206.637 296.57C206.637 343.635 206.637 367.168 214.767 385.547C224.219 406.915 241.196 424.003 262.426 433.517C280.686 441.7 304.067 441.7 350.828 441.7C397.589 441.7 420.97 441.7 439.23 433.517C460.459 424.003 477.437 406.915 486.889 385.547C495.019 367.168 495.019 343.635 495.019 296.57C495.019 249.504 495.019 225.971 486.889 207.592C477.437 186.224 460.459 169.136 439.23 159.622C420.97 151.439 397.589 151.439 350.828 151.439C304.067 151.439 280.686 151.439 262.426 159.622C241.196 169.136 224.219 186.224 214.767 207.592Z" fill="black"/>
<path fill-rule="evenodd" clip-rule="evenodd" d="M596.369 220.889L590.802 226.492C574.627 242.772 564.926 252.599 558.279 260.48C553.775 265.82 552.444 268.268 552.171 268.845C550.781 273.221 550.781 277.924 552.171 282.299C552.444 282.877 553.775 285.325 558.279 290.664C564.926 298.545 574.627 308.372 590.802 324.653L611.61 345.595C627.785 361.876 637.548 371.64 645.378 378.331C650.683 382.864 653.115 384.203 653.689 384.478C658.036 385.878 662.709 385.878 667.056 384.478C667.63 384.203 670.062 382.864 675.367 378.331C683.197 371.64 692.96 361.876 709.135 345.595L714.702 339.992C730.877 323.712 740.578 313.885 747.225 306.004C751.729 300.664 753.06 298.217 753.333 297.639C754.724 293.264 754.724 288.56 753.333 284.185C753.06 283.607 751.729 281.159 747.225 275.82C740.578 267.939 730.877 258.112 714.702 241.832L693.895 220.889C677.72 204.608 667.957 194.844 660.127 188.154C654.821 183.621 652.389 182.281 651.816 182.006C647.468 180.607 642.796 180.607 638.448 182.006C637.875 182.281 635.443 183.62 630.137 188.154C622.307 194.844 612.544 204.608 596.369 220.889ZM638.585 181.947C638.584 181.95 638.543 181.969 638.465 181.998C638.548 181.959 638.586 181.945 638.585 181.947ZM651.679 181.947C651.677 181.945 651.716 181.959 651.799 181.998C651.721 181.969 651.68 181.95 651.679 181.947ZM753.392 284.323C753.389 284.321 753.37 284.28 753.341 284.202C753.38 284.285 753.394 284.324 753.392 284.323ZM753.392 297.501C753.394 297.5 753.38 297.539 753.341 297.622C753.37 297.544 753.389 297.503 753.392 297.501ZM666.919 384.537C666.92 384.535 666.962 384.515 667.039 384.486C666.957 384.525 666.918 384.54 666.919 384.537ZM653.826 384.537C653.827 384.54 653.788 384.525 653.706 384.486C653.783 384.515 653.825 384.535 653.826 384.537ZM552.113 282.162C552.115 282.163 552.135 282.204 552.163 282.282C552.124 282.199 552.11 282.16 552.113 282.162ZM552.113 268.983C552.11 268.984 552.124 268.945 552.163 268.862C552.135 268.94 552.115 268.982 552.113 268.983ZM498.541 299.946C504.355 317.955 519.872 333.573 550.906 364.809L571.713 385.752C602.747 416.988 618.264 432.606 636.156 438.457C651.895 443.605 668.849 443.605 684.588 438.457C702.481 432.606 717.998 416.988 749.032 385.752L754.599 380.149C785.633 348.913 801.149 333.295 806.963 315.286C812.077 299.444 812.077 282.38 806.963 266.538C801.149 248.529 785.633 232.911 754.599 201.675L733.792 180.732C702.758 149.496 687.241 133.878 669.348 128.027C653.609 122.88 636.655 122.88 620.916 128.027C603.023 133.878 587.506 149.496 556.473 180.732L550.906 186.335C519.872 217.571 504.355 233.189 498.541 251.199C493.427 267.04 493.427 284.104 498.541 299.946Z" fill="black"/>
<path fill-rule="evenodd" clip-rule="evenodd" d="M113.625 801.443C141.63 785.919 172.263 771.395 205.963 758.279L232.001 824.694C233.121 827.552 235.789 829.495 238.836 829.673C264.841 831.192 289.552 835.009 313.199 840.364C255.132 856.886 207.074 877.488 166.559 899.999C170.383 876.993 174.514 860.545 182.588 835.003L184.672 828.412L178.452 825.472C151.26 812.621 134.161 806.558 113.625 801.443ZM332.041 795.5L324.157 826.735C304.202 821.909 283.449 818.097 261.781 815.758C283.288 808.145 306.619 801.286 332.041 795.5ZM341.164 777.373C304.1 785.093 271.17 795.05 241.669 806.377L200.795 702.118C283.893 669.756 374.916 648.354 494.987 648.354C615.058 648.354 706.081 669.756 789.18 702.118L748.305 806.377C718.804 795.05 685.875 785.093 648.81 777.373C647.163 777.03 645.508 776.691 643.844 776.357C594.524 766.45 546.204 760.462 494.987 760.462C443.771 760.462 395.45 766.45 346.13 776.357C344.467 776.691 342.812 777.03 341.164 777.373ZM657.933 795.5C683.355 801.286 706.686 808.145 728.193 815.758C706.525 818.097 685.772 821.909 665.817 826.735L657.933 795.5ZM823.416 899.999C782.9 877.488 734.842 856.886 676.775 840.364C700.422 835.009 725.134 831.192 751.138 829.673C754.186 829.495 756.853 827.552 757.974 824.694L760.022 819.469L784.011 758.279C817.712 771.395 848.344 785.919 876.349 801.443C855.813 806.558 838.714 812.621 811.523 825.472L805.302 828.412L807.386 835.003C815.461 860.545 819.592 876.993 823.416 899.999Z" fill="black"/>
<path fill-rule="evenodd" clip-rule="evenodd" d="M290.987 656.562C271.968 640.073 259.926 615.656 259.926 588.408C259.926 538.748 299.923 498.49 349.262 498.49C398.601 498.49 438.598 538.748 438.598 588.408C438.598 605.492 433.865 621.463 425.646 635.065C445.676 633.585 466.518 632.743 488.292 632.6C492.663 618.654 495.021 603.808 495.021 588.408C495.021 507.383 429.762 441.7 349.262 441.7C268.762 441.7 203.504 507.383 203.504 588.408C203.504 620.48 213.729 650.149 231.077 674.292C250.426 667.724 270.32 661.775 290.987 656.562Z" fill="black"/>
<path fill-rule="evenodd" clip-rule="evenodd" d="M552.087 634.248C551.482 623.175 551.454 608.669 551.454 586.83C551.454 562.467 551.489 547.23 552.321 535.704C553.114 524.736 554.407 521.627 554.706 520.951C558.487 512.404 565.278 505.569 573.769 501.763C574.44 501.463 577.529 500.161 588.426 499.364C599.878 498.525 615.017 498.49 639.222 498.49C663.428 498.49 678.567 498.525 690.018 499.364C700.915 500.161 704.004 501.463 704.675 501.763C713.167 505.569 719.958 512.404 723.739 520.951C724.038 521.627 725.331 524.736 726.123 535.704C726.956 547.23 726.991 562.467 726.991 586.83C726.991 611.193 726.956 626.431 726.123 637.957C725.331 648.925 724.038 652.034 723.739 652.709C722.296 655.972 720.414 658.985 718.166 661.675C737.198 667.009 755.607 672.963 773.584 679.441C774.175 678.244 774.741 677.033 775.283 675.808C783.413 657.429 783.413 633.896 783.413 586.83C783.413 539.765 783.413 516.232 775.283 497.853C765.831 476.485 748.854 459.397 727.624 449.883C709.364 441.7 685.983 441.7 639.222 441.7C592.461 441.7 569.081 441.7 550.82 449.883C529.591 459.397 512.613 476.485 503.161 497.853C495.031 516.232 495.031 539.765 495.031 586.83C495.031 605.35 495.031 620.226 495.527 632.578C515.102 632.589 533.927 633.16 552.087 634.248Z" fill="black"/>
<path fill-rule="evenodd" clip-rule="evenodd" d="M113.625 801.443C141.63 785.919 172.263 771.395 205.963 758.279L232.001 824.694C233.121 827.552 235.789 829.495 238.836 829.673C264.841 831.192 289.552 835.009 313.199 840.364C255.132 856.886 207.074 877.488 166.559 899.999C170.383 876.993 174.514 860.545 182.588 835.003L184.672 828.412L178.452 825.472C151.26 812.621 134.161 806.558 113.625 801.443ZM332.041 795.5L324.157 826.735C304.202 821.909 283.449 818.097 261.781 815.758C283.288 808.145 306.619 801.286 332.041 795.5ZM341.164 777.373C304.1 785.093 271.17 795.05 241.669 806.377L200.795 702.118C283.893 669.756 374.916 648.354 494.987 648.354C615.058 648.354 706.081 669.756 789.18 702.118L748.305 806.377C718.804 795.05 685.875 785.093 648.81 777.373C647.163 777.03 645.508 776.691 643.844 776.357C594.524 766.45 546.204 760.462 494.987 760.462C443.771 760.462 395.45 766.45 346.13 776.357C344.467 776.691 342.812 777.03 341.164 777.373ZM657.933 795.5C683.355 801.286 706.686 808.145 728.193 815.758C706.525 818.097 685.772 821.909 665.817 826.735L657.933 795.5ZM823.416 899.999C782.9 877.488 734.842 856.886 676.775 840.364C700.422 835.009 725.134 831.192 751.138 829.673C754.186 829.495 756.853 827.552 757.974 824.694L760.022 819.469L784.011 758.279C817.712 771.395 848.344 785.919 876.349 801.443C855.813 806.558 838.714 812.621 811.523 825.472L805.302 828.412L807.386 835.003C815.461 860.545 819.592 876.993 823.416 899.999Z" fill="black"/>
</g>
<defs>
<clipPath id="clip0_4865_11">
<rect width="990" height="900" fill="white"/>
</clipPath>
</defs>
</svg>
