<svg width="77" height="56" viewBox="0 0 77 56" fill="none" xmlns="http://www.w3.org/2000/svg" role="img">
<title>traQ</title>
<path d="M13.9123 29.9269H5.68709V26.1307C5.68709 25.7511 5.43398 25.498 5.05438 25.498H1.25819C0.878586 25.498 0.625488 25.7511 0.625488 26.1307V41.9483C0.625488 45.6812 2.58689 46.3772 5.68709 46.3772C6.19329 46.3772 11.3815 46.3772 11.3815 46.3772H13.9123C14.2919 46.3772 14.545 46.1241 14.545 45.7445V43.8464C14.545 43.4668 14.2919 43.2137 13.9123 43.2137H9.79968C5.37078 43.2137 5.81369 42.9606 5.68709 38.4684V33.0904H13.9123C14.2919 33.0904 14.545 32.8373 14.545 32.4577V30.5596C14.545 30.2433 14.2286 29.9269 13.9123 29.9269Z" fill="#2C3542"/>
<path d="M28.9709 29.1045H25.4275C23.9723 29.1045 22.3905 29.7372 22.3905 31.3822V29.7372C22.3905 29.3576 22.1374 29.1045 21.7578 29.1045H18.7841C18.4045 29.1045 18.1514 29.3576 18.1514 29.7372V45.7446C18.1514 46.1242 18.4045 46.3773 18.7841 46.3773H21.7578C22.1374 46.3773 22.3905 46.1242 22.3905 45.7446V36.7602C22.3905 33.66 24.0355 31.6986 26.1867 31.6986H28.9709C29.3499 31.6986 29.6029 31.4455 29.6029 31.0659V29.8005C29.6029 29.4209 29.2869 29.1045 28.9709 29.1045Z" fill="#2C3542"/>
<path d="M41.2449 29.1045H32.7039C32.3239 29.1045 32.0709 29.3576 32.0709 29.7372V31.0026C32.0709 31.3822 32.3239 31.6353 32.7039 31.6353H37.6389C39.6629 31.6353 40.6759 32.4578 40.6759 34.1661V35.1785H36.1839C33.1469 35.1785 31.6279 36.8868 31.6279 40.2401V41.2524C31.6279 44.669 33.1469 46.314 36.1839 46.314H45.2309C45.6109 46.314 45.8639 46.061 45.8639 45.6813V34.2294C45.8639 30.8128 44.2819 29.1045 41.2449 29.1045ZM40.7389 43.8465H38.7139C37.3859 43.8465 36.6899 43.024 36.6899 41.3157V40.3034C36.6899 38.5951 37.3859 37.7725 38.7139 37.7725H40.7389V43.8465Z" fill="#2C3542"/>
<path d="M72.8799 42.8972C75.4109 40.3664 76.9929 36.8233 76.9929 32.9638C76.9929 25.1815 70.6659 18.8545 62.8839 18.8545C55.1009 18.8545 48.7739 25.1815 48.7739 32.9638C48.7739 40.746 55.1009 47.0731 62.8839 47.0731C65.2879 47.0731 67.5019 46.5037 69.5269 45.4281L70.7919 46.9465C70.9819 47.1364 71.2989 47.3262 71.5519 47.3262H76.0439C76.2969 47.3262 76.3599 47.1364 76.1699 46.9465L72.8799 42.8972ZM62.9469 42.5809C57.6319 42.5809 53.2669 38.2152 53.2669 32.9005C53.2669 27.5858 57.6319 23.2201 62.9469 23.2201C68.2619 23.2201 72.6269 27.5858 72.6269 32.9005C72.6269 35.4313 71.6779 37.7091 70.0959 39.4174L67.2489 35.9375C67.0599 35.7477 66.7429 35.5579 66.4899 35.5579H61.9979C61.7449 35.5579 61.6819 35.7477 61.8709 35.9375L66.6799 41.8216C65.5409 42.3278 64.2759 42.5809 62.9469 42.5809Z" fill="#2C3542"/>
</svg>
